<svg class="animated" id="freepik_stories-curiosity" xmlns="http://www.w3.org/2000/svg" viewBox="0 0 500 500" version="1.1" xmlns:xlink="http://www.w3.org/1999/xlink" xmlns:svgjs="http://svgjs.com/svgjs"><style>svg#freepik_stories-curiosity:not(.animated) .animable {opacity: 0;}svg#freepik_stories-curiosity.animated #freepik--background-complete--inject-55 {animation: 1s 1 forwards cubic-bezier(.36,-0.01,.5,1.38) zoomIn;animation-delay: 0s;}svg#freepik_stories-curiosity.animated #freepik--Light--inject-55 {animation: 1s 1 forwards cubic-bezier(.36,-0.01,.5,1.38) slideLeft;animation-delay: 0s;}svg#freepik_stories-curiosity.animated #freepik--Plants--inject-55 {animation: 1s 1 forwards cubic-bezier(.36,-0.01,.5,1.38) slideLeft;animation-delay: 0s;}svg#freepik_stories-curiosity.animated #freepik--Door--inject-55 {animation: 1s 1 forwards cubic-bezier(.36,-0.01,.5,1.38) slideUp;animation-delay: 0s;}svg#freepik_stories-curiosity.animated #freepik--Floor--inject-55 {animation: 1s 1 forwards cubic-bezier(.36,-0.01,.5,1.38) slideRight;animation-delay: 0s;}svg#freepik_stories-curiosity.animated #freepik--Character--inject-55 {animation: 1s 1 forwards cubic-bezier(.36,-0.01,.5,1.38) slideUp;animation-delay: 0s;}svg#freepik_stories-curiosity.animated #freepik--speech-bubble--inject-55 {animation: 1s 1 forwards cubic-bezier(.36,-0.01,.5,1.38) zoomIn;animation-delay: 0s;}            @keyframes zoomIn {                0% {                    opacity: 0;                    transform: scale(0.5);                }                100% {                    opacity: 1;                    transform: scale(1);                }            }                    @keyframes slideLeft {                0% {                    opacity: 0;                    transform: translateX(-30px);                }                100% {                    opacity: 1;                    transform: translateX(0);                }            }                    @keyframes slideUp {                0% {                    opacity: 0;                    transform: translateY(30px);                }                100% {                    opacity: 1;                    transform: inherit;                }            }                    @keyframes slideRight {                0% {                    opacity: 0;                    transform: translateX(30px);                }                100% {                    opacity: 1;                    transform: translateX(0);                }            }        </style><g id="freepik--background-complete--inject-55" class="animable" style="transform-origin: 250.063px 237.756px;"><path d="M399.74,161.73l-8.23,11.83a10.6,10.6,0,0,1-15.11,2.71,10.87,10.87,0,0,1-2.71-15.11l13.16-18.92c.12-.18.31-.05.44-.24-.07-.3-.07-.3.06-.49a11.18,11.18,0,0,1,15.11-2.72,25,25,0,0,0,34.92-5.94c8-11.46,4.89-26.83-6.57-34.8a24.47,24.47,0,0,0-24.42-2.14,10.94,10.94,0,0,1-14.65-5.33,10.8,10.8,0,0,1,5.39-14.33,46.57,46.57,0,1,1,2.61,85.48ZM372,201.57l-2.28,3.27a10.6,10.6,0,0,1-15.12,2.71,10.87,10.87,0,0,1-2.7-15.11l2.27-3.27a11,11,0,0,1,15.11-2.71A10.73,10.73,0,0,1,372,201.57Z" style="fill: rgb(235, 235, 235); transform-origin: 406.701px 140.731px;" id="elin6eui6tjsh" class="animable"></path><path d="M342,66.66l1-10.36a7.66,7.66,0,0,1,8.58-7,7.86,7.86,0,0,1,7,8.58L357,74.42c0,.15-.18.14-.2.3.15.17.15.17.14.33a8.08,8.08,0,0,1-8.58,7,17.93,17.93,0,1,0-3.54,35.68A17.68,17.68,0,0,0,361,110.52a7.9,7.9,0,0,1,11.12-1.79,7.8,7.8,0,0,1,1.64,10.94,33.64,33.64,0,1,1-31.74-53Zm3.46-34.89.29-2.87a7.66,7.66,0,0,1,8.58-7,7.86,7.86,0,0,1,7,8.58l-.29,2.87a8,8,0,0,1-8.57,7A7.77,7.77,0,0,1,345.46,31.77Z" style="fill: rgb(235, 235, 235); transform-origin: 344.06px 77.7488px;" id="el0zgdmj4rm2s" class="animable"></path><path d="M56.13,215.76l-5-9.1A7.67,7.67,0,0,1,54.15,196a7.87,7.87,0,0,1,10.66,3.06l8.07,14.57c.08.13-.07.21,0,.36s.22.05.3.2a8.07,8.07,0,0,1-3.06,10.66A17.93,17.93,0,1,0,87.51,256.2a17.71,17.71,0,0,0,9.18-15.15,7.89,7.89,0,0,1,8.12-7.79,7.8,7.8,0,0,1,7.58,8.06,33.64,33.64,0,1,1-56.26-25.56Zm-17-30.66-1.39-2.52a7.65,7.65,0,0,1,3.06-10.67A7.86,7.86,0,0,1,51.47,175l1.39,2.52a8,8,0,0,1-3,10.66A7.77,7.77,0,0,1,39.14,185.1Z" style="fill: rgb(235, 235, 235); transform-origin: 74.5377px 222.615px;" id="elu1almjbglhm" class="animable"></path><path d="M395.05,321.16a26.31,26.31,0,0,0-.8,11.5c1.2,8.06,7.27,14.44,8.58,22.37-.16,1-.36,1.91-.62,2.87a.07.07,0,0,1,0,.05s0,0,0,0h0v0a.08.08,0,0,0,.07.08l.15-.32q.15-.3.27-.6c.12-.28.23-.57.34-.86,0,0,.06-.13.06-.17,3-8.14.25-17.18-1.13-25.45-.79-4.73-.46-9.5-1.16-14.21-.17-1.12-.16-3.25-1.78-2.82C397.2,314.14,395.51,319.65,395.05,321.16Z" style="fill: rgb(235, 235, 235); transform-origin: 399.198px 335.787px;" id="elj56nvegv9rn" class="animable"></path><path d="M396.24,328.11c-.51,9.8,8.53,18.38,6.43,28.17-.07.27-.13.54-.21.82s-.1.38-.16.56h0c0,.07-.05.15-.08.23a.07.07,0,0,1,0,.05s0,0,0,0h0v0a.08.08,0,0,0,.07.08h0a.08.08,0,0,0,.08-.06c.12-.29.22-.58.31-.87a13.3,13.3,0,0,0,.5-2.17h0a31.26,31.26,0,0,0-.2-13.12c-1.12-5.56-2.54-10.95-3.55-16.58-.13-.69-.13-3.43-1.25-3.06C396.78,322.68,396.3,327,396.24,328.11Zm.48-1.46c.09-.55.8-4.23,1.72-3.85.54.23.61,3,.7,3.41.32,1.52.65,3,1,4.55.7,3.18,1.41,6.36,2.1,9.55a42.14,42.14,0,0,1,1.09,11.78C402.8,343.51,395.3,335.55,396.72,326.65Z" style="fill: rgb(255, 255, 255); transform-origin: 399.999px 340.073px;" id="ellh3675leujr" class="animable"></path><path d="M392.7,415.26c0,.13.11.31.29.2,7.42-4.78,16.68-.89,24.37-5.16a39.7,39.7,0,0,0,8.26-6.59,31.55,31.55,0,0,0,5-6c.18-.3,1.12-1.51,1-2.12-1.18-4.57-13.07,3.17-15.06,4.26-7.78,4.25-14.89,8.12-21.7,13.56-.72.55-1.43,1.14-2.13,1.74C392.7,415.18,392.7,415.22,392.7,415.26Z" style="fill: rgb(235, 235, 235); transform-origin: 412.165px 404.827px;" id="ely1zm1gd57ch" class="animable"></path><path d="M392.7,415.26l.81-.5c5.11-2.46,10.79-3.32,16.28-4.72a30.58,30.58,0,0,0,14.38-7.75c.73-.71,3.74-3.43,2.85-4.79s-3.83,1.14-4.57,1.56c-5.53,3.09-10.93,6.23-16.69,8.9a120.75,120.75,0,0,0-10.91,5.47c-.72.55-1.43,1.14-2.13,1.74C392.7,415.18,392.7,415.22,392.7,415.26Zm3.47-2.07c4.06-2.27,8.33-4.16,12.56-6.17q4.35-2.06,8.52-4.47c1.52-.88,3-1.79,4.57-2.66.77-.44,1.54-.87,2.31-1.28.39-.21,1.66-.95,2-.36.87,1.6-7.66,9.69-18.24,11.78A66.55,66.55,0,0,0,396.17,413.19Z" style="fill: rgb(255, 255, 255); transform-origin: 409.942px 406.179px;" id="elnl7f2h9tkm" class="animable"></path><path d="M405.05,401.2a.07.07,0,0,0,0,.1.09.09,0,0,0,.12,0c.15-.16.3-.3.46-.45.56-.56,1.1-1.12,1.63-1.69l.29-.31a.15.15,0,0,0,.09,0c5.93-6.06,14.91-7.92,20-14.95a34.13,34.13,0,0,0,4.76-10.43c.47-1.59,2.75-6.44.75-7.7-1.56-1-4,1.14-5,2-3.24,2.86-5.52,6.88-7.77,10.51s-4.22,7.23-6.32,10.84a67.81,67.81,0,0,1-6.63,9.28C406.63,399.34,405.85,400.27,405.05,401.2Z" style="fill: rgb(235, 235, 235); transform-origin: 419.494px 383.416px;" id="eli4lihjg5h1" class="animable"></path><path d="M405.05,401.2a.07.07,0,0,0,0,.1l1.47-1.52-.89,1.07c.56-.56,1.1-1.12,1.63-1.69l.79-.9A96,96,0,0,1,419,389.19a20,20,0,0,0,4.93-4.88c2.48-3.57,6.34-11.95,5.6-13.22s-2.3,1.41-2.73,2c-3.45,4.71-6.25,9.82-10,14.35-2.49,3.05-5,6.07-7.56,9.09-.63.62-1.26,1.25-1.86,1.89C406.63,399.34,405.85,400.27,405.05,401.2ZM429,371.39c.66.28-.34,2.53-.6,3.12a91.42,91.42,0,0,1-4.17,8.49,20.76,20.76,0,0,1-6.65,6.7,68.1,68.1,0,0,0-6.41,5.09c2.51-2.84,5-5.71,7.31-8.69,1.92-2.48,3.6-5.13,5.3-7.76.84-1.32,1.69-2.63,2.59-3.91.25-.35,2-3.28,2.63-3" style="fill: rgb(255, 255, 255); transform-origin: 417.326px 386.026px;" id="elj3gaztg9n2r" class="animable"></path><path d="M360.85,438.63a.05.05,0,0,0,0,.07.08.08,0,0,0,.08-.06l.12-.57c.13-.69.25-1.38.35-2.06,0-.13,0-.25.05-.38a.12.12,0,0,0,.05-.07c1.31-7.45,7-13.34,7.16-21.07A30.45,30.45,0,0,0,367,404.41c-.47-1.4-1.23-6.12-3.34-6-1.64.06-2.36,2.86-2.65,4-.94,3.74-.6,7.85-.42,11.66s.54,7.44.82,11.16a62.67,62.67,0,0,1-.2,10.17C361.07,436.46,361,437.54,360.85,438.63Z" style="fill: rgb(235, 235, 235); transform-origin: 364.52px 418.554px;" id="elz3e8qncci8j" class="animable"></path><path d="M360.85,438.63a.05.05,0,0,0,0,.07c.11-.62.21-1.24.32-1.86-.05.41-.09.83-.12,1.23.13-.69.25-1.38.35-2.06l.12-1.06a84.59,84.59,0,0,1,3.48-12.18,18,18,0,0,0,1.16-6.09c0-3.87-1.36-12-2.55-12.55s-1,2.2-1,2.84c-.16,5.21.35,10.39-.09,15.59-.31,3.5-.65,7-1,10.5-.16.78-.31,1.55-.42,2.33C361.07,436.46,361,437.54,360.85,438.63Zm1.22-7.78c.42-3.35.8-6.72,1-10.08.17-2.79.07-5.59,0-8.38,0-1.4-.08-2.79-.06-4.19,0-.38-.15-3.44.4-3.56s1,2,1.14,2.6c.51,2.74,1,5.57,1.21,8.35a18.57,18.57,0,0,1-1.52,8.28A64.23,64.23,0,0,0,362.07,430.85Z" style="fill: rgb(255, 255, 255); transform-origin: 363.498px 421.379px;" id="elpygxhw84mds" class="animable"></path><path d="M360,444.81a1.1,1.1,0,0,0,.58-.2c7.59-2.9,15.89-3,23.53-5.94a22.12,22.12,0,0,0,8.86-5.84c1-1.16,4.55-5.14,3.77-7-2.32-5.55-28,11.94-36.38,18.23a1.55,1.55,0,0,0-.38.26C359.71,444.58,359.75,444.79,360,444.81Z" style="fill: rgb(235, 235, 235); transform-origin: 378.323px 434.784px;" id="el3v5fgyuq22m" class="animable"></path><path d="M360,444.81l1.7-.93c1.84-.74,3.7-1.44,5.6-2,3-.95,6.1-1.51,9.16-2.28a29.1,29.1,0,0,0,12.8-6.84c.79-.73,3.13-2.66,2.62-4s-2.38,0-3.06.3c-9.63,4.6-19,9.89-28.35,15.08l-.49.25C359.71,444.58,359.75,444.79,360,444.81Zm4.47-2.45q5.49-3,11-5.93,4.31-2.3,8.64-4.57c1.43-.74,2.84-1.51,4.28-2.23.57-.29,2.76-1.41,3-.61s-1.31,2.27-1.58,2.55c-4.34,4.45-9.89,6.74-15.84,8.07A69.64,69.64,0,0,0,364.46,442.36Z" style="fill: rgb(255, 255, 255); transform-origin: 375.873px 436.492px;" id="eloygfppc27z" class="animable"></path><path d="M396.37,380.65a.34.34,0,0,0,0,.29.38.38,0,0,0,.33.23.45.45,0,0,0,.23,0,.17.17,0,0,0,.13,0c3.58-3.51,9.06-6.78,12.75-10.14a39.1,39.1,0,0,0,7.11-9,53,53,0,0,0,5.25-11.67c.58-1.94,2.25-6.54.67-8.45-3.24-3.93-9.79,10.37-10.74,12C406.8,362.77,401.54,371.68,396.37,380.65Z" style="fill: rgb(235, 235, 235); transform-origin: 409.92px 361.207px;" id="elueyufns8mn" class="animable"></path><path d="M396.33,380.94a.38.38,0,0,0,.33.23c.22-.3.43-.61.64-.91,1.4-1.64,2.8-3.29,4.3-4.87,2.43-2.56,5.22-4.77,7.56-7.41,4.09-4.6,11.77-19.24,9.56-20.71-1.15-.76-2.57,2.26-3,3-1.65,2.82-2.93,5.83-4.62,8.64s-3.7,5.78-5.63,8.62c-3,4.37-6,8.72-8.9,13.13Zm2.95-3.55c2.65-3.86,5.26-7.75,7.88-11.63,1.81-2.68,3.6-5.38,5.21-8.19.89-1.57,1.7-3.19,2.51-4.81.4-.79.79-1.58,1.24-2.35s1.82-3.39,2.46-2.39-1.29,5.3-1.75,6.3c-.75,1.63-1.51,3.25-2.34,4.84A42,42,0,0,1,408.6,368c-2.37,2.62-5.14,4.84-7.54,7.44C400.46,376.05,399.86,376.71,399.28,377.39Z" style="fill: rgb(255, 255, 255); transform-origin: 407.721px 364.159px;" id="elxkua3qbg0o" class="animable"></path><path d="M353.38,387.78c6.59,7.17,17.24,9.16,21.12,21.72a.05.05,0,0,0,.09,0,0,0,0,0,0,0,0c-.24-1.27-.52-2.53-.86-3.78a54.94,54.94,0,0,0-9.12-18.84,41.4,41.4,0,0,0-8.91-8.72c-1.74-1.23-5.5-4.37-7.67-3.89C343.37,375.29,352.17,386.48,353.38,387.78Z" style="fill: rgb(235, 235, 235); transform-origin: 360.635px 391.874px;" id="elms6qlul5su9" class="animable"></path><path d="M353.77,383.36c2.66,5.22,7.93,8.59,12,12.65a47.69,47.69,0,0,1,7.3,9.23c.54,1.41,1.06,2.83,1.56,4.28a0,0,0,0,0,0,0c-.24-1.27-.52-2.53-.86-3.78l-.12-.2a58.11,58.11,0,0,0-5.47-11,60.33,60.33,0,0,0-10.88-12.9c-.73-.66-3.12-3.5-4.37-2.77S353.4,382.64,353.77,383.36Zm-.45-4c.91-.34,5.14,3.86,6.8,5.58a60.11,60.11,0,0,1,9.19,12.31,56.86,56.86,0,0,1,2.9,6,48,48,0,0,0-4.77-6c-3.64-3.9-8.19-7-11.49-11.21a16.83,16.83,0,0,1-2.18-3.56C353.55,382,352.5,379.63,353.32,379.32Z" style="fill: rgb(255, 255, 255); transform-origin: 363.556px 394.135px;" id="el6ye6wmx74n9" class="animable"></path><path d="M361.56,348.66a44.86,44.86,0,0,0-.07,10.55,44.06,44.06,0,0,0,6.89,19l.2.31c.06.33.12.66.21,1a1.85,1.85,0,0,0,0,.23l0,.05h0a.09.09,0,0,0,.15-.07c0-.41,0-.82,0-1.24.14-8.49,1.71-16.8.57-25.3-.26-1.86-1.47-14-5.71-11.93C361.9,342.23,361.77,346.89,361.56,348.66Z" style="fill: rgb(235, 235, 235); transform-origin: 365.568px 360.423px;" id="el34plgg6wx2p" class="animable"></path><path d="M363.25,350.37c-.29,5.23,1.08,10.85,2.16,15.95a119.08,119.08,0,0,0,3,11.91c.1.31.2.64.31.95,0,.12.06.23.1.35a1.4,1.4,0,0,0,.06.28h0a.09.09,0,0,0,.15-.07c0-.41,0-.82,0-1.24s-.17-.62-.25-.93a98.17,98.17,0,0,1-.52-13.95c0-2.53,0-5-.24-7.56a34.42,34.42,0,0,0-1.08-7.36c-.33-1-1-3-2.44-2.27C363.29,347.05,363.32,349.26,363.25,350.37Zm3.12-1.77a37.63,37.63,0,0,1,1.23,8.86c.19,2.75.16,5.52.13,8.28a86.63,86.63,0,0,0,.21,8.82c-1-3.68-2-7.37-2.69-11.15-.56-3-1.06-5.92-1.4-8.91a22.5,22.5,0,0,1-.15-4.64,12.92,12.92,0,0,1,.22-1.64C364.29,346.52,366,347.36,366.37,348.6Z" style="fill: rgb(255, 255, 255); transform-origin: 366.12px 363.053px;" id="elwnephmv7a4" class="animable"></path><path d="M413.69,326.61c0,.14-.05.27-.08.41a.24.24,0,0,0,.31.28.28.28,0,0,0,.19-.2c.05-.24.11-.49.17-.74h0c.05-.2.09-.4.14-.6s.38-.65.59-1c2.25-3.41,6.15-6.29,8.8-9.2a53.76,53.76,0,0,0,6.54-8.49A26.44,26.44,0,0,0,434.14,297c.12-1,.58-3.43-.63-4-1.54-.78-3.89,2.17-4.72,2.94a43.6,43.6,0,0,0-7.34,9.12C417.33,311.68,415.22,319,413.69,326.61Z" style="fill: rgb(235, 235, 235); transform-origin: 423.965px 310.091px;" id="elb2f6blnemoq" class="animable"></path><path d="M414.38,324.92a15.36,15.36,0,0,0-.69,1.69c0,.14-.05.27-.08.41a.24.24,0,0,0,.31.28c0-.1.06-.2.1-.3s.17-.42.26-.64h0c.23-.53.47-1.05.73-1.56a35.24,35.24,0,0,1,3.3-5.25c2.16-2.89,4.43-5.69,6.48-8.66,1-1.48,8.95-12.93,5.83-14-.58-.22-1.15.57-1.46.9a23.59,23.59,0,0,0-2.84,3.83c-2,3.1-3.86,6.29-5.62,9.52A100.46,100.46,0,0,0,414.38,324.92ZM420,313.1q2.26-4.31,4.78-8.45c.82-1.34,1.63-2.7,2.52-4,.44-.65,2.67-3.55,3.27-3.17.9.56-1.22,5.08-1.87,6.3-.73,1.39-1.54,2.74-2.37,4.07-1.7,2.67-3.56,5.23-5.48,7.75-1.7,2.22-3.72,4.59-5.31,7.15A101.28,101.28,0,0,1,420,313.1Z" style="fill: rgb(255, 255, 255); transform-origin: 422.473px 312.082px;" id="elxllxdk048yb" class="animable"></path><path d="M386.5,366.44c0,.14.09.26.13.4a.24.24,0,0,0,.41.08.24.24,0,0,0,.07-.26c-.08-.24-.15-.48-.23-.72h0c-.06-.2-.11-.39-.18-.58,0-.38,0-.76,0-1.14.24-4.07,2.17-8.52,3-12.37a53.57,53.57,0,0,0,1.39-10.63,26.38,26.38,0,0,0-1.8-10.66c-.39-.91-1.22-3.27-2.58-3.19-1.72.11-2.28,3.84-2.61,4.92a44,44,0,0,0-1.77,11.57C382.15,351.71,384,359.08,386.5,366.44Z" style="fill: rgb(235, 235, 235); transform-origin: 386.714px 347.186px;" id="ele6scdwb4r5g" class="animable"></path><path d="M386.24,364.64a17.72,17.72,0,0,0,.26,1.8c0,.14.09.26.13.4a.24.24,0,0,0,.41.08l-.06-.3c0-.23-.07-.45-.1-.68h0c-.07-.57-.11-1.14-.15-1.72A35,35,0,0,1,387,358c.42-3.58,1-7.15,1.27-10.74.14-1.8,1.24-15.68-2-15.06-.61.11-.71,1.07-.82,1.51a23.66,23.66,0,0,0-.53,4.74c-.16,3.68-.18,7.38-.08,11.06A102,102,0,0,0,386.24,364.64Zm-1-13.07q-.19-4.86-.1-9.7c0-1.58.05-3.16.17-4.74.05-.78.52-4.41,1.24-4.38,1.05,0,1.49,5,1.54,6.39.06,1.57,0,3.14,0,4.71-.12,3.16-.45,6.31-.85,9.45-.35,2.77-.91,5.83-1,8.85A101.45,101.45,0,0,1,385.21,351.57Z" style="fill: rgb(255, 255, 255); transform-origin: 386.67px 349.592px;" id="elk5qiu138d7" class="animable"></path><path d="M368,372.14a197.28,197.28,0,0,0,4.47,21.8c1.51,5.55,3,11.19,3.24,17a43.32,43.32,0,0,1-5.25,21.2q3-3.39,6-6.89c4-4.74,8.05-9.6,10.92-15.17.29-.55.54-1.11.8-1.66a.17.17,0,0,1,0-.14,74.85,74.85,0,0,0,1.44-22.37,61.67,61.67,0,0,0-4.87-11.2,49.33,49.33,0,0,1-5-11.36.19.19,0,0,1,.35-.13c2.07,5.41,6.31,10.68,8.81,16.29-.14-.92-.29-1.85-.46-2.78-1.63-8.88-4.71-17.81-1.45-26.69.1-.3.53-.1.44.19-3.07,9.9,1.75,20.8,3.18,30.63,1.06,7.31,1.42,15.18-.35,22.47A118.2,118.2,0,0,0,393.45,391c5.6-24.94,12.06-49.73,24.19-72.4.11-.22.47-.07.36.16-12.41,24.59-17.33,51.33-23.8,77.83-.07.3-.15.6-.23.9a50.14,50.14,0,0,1,7.8-9.43c.14-.13.37,0,.24.2-3.55,4.56-6.27,9.54-9.47,14.3a52,52,0,0,1-4.64,10.67,84.33,84.33,0,0,1-8.25,11.29c5.06-4.25,10.17-8.43,14.93-13.06a226,226,0,0,0,20.25-22.27.11.11,0,0,1,.17.14,188.88,188.88,0,0,1-20.14,24c-6.31,6.27-13.06,12.65-20.62,17.46-7.23,8.33-15,16.69-24.11,22.78a.39.39,0,0,1-.46-.64c1.68-1.5,3.32-3,4.94-4.55,1.58-3.52,3.76-6.75,5.16-10.4a57.44,57.44,0,0,0,3.36-13.27c0-.34.53-.25.51.08-.38,6.2-1.77,13.85-5.08,19.78q3.46-3.44,6.8-7c5.94-9.07,9.81-19.85,8.51-30.7-.67-5.58-2.27-11-3.58-16.41a120.77,120.77,0,0,1-2.73-18.34A.21.21,0,0,1,368,372.14Z" style="fill: rgb(235, 235, 235); transform-origin: 383.764px 386.068px;" id="eluqlu72zcbbh" class="animable"></path><path d="M144.65,337c1.28,3.53,1,7.89.86,11.57a91.52,91.52,0,0,1-1.46,12.56c-.7,3.87-1.59,7.69-2.55,11.5l0,.1c-.06.26-.13.51-.19.75s-.08.62-.13.94a.2.2,0,0,1-.16.16.16.16,0,0,1-.2-.17c0-.17,0-.35.05-.51.62-7.15-3.5-13.66-3.75-20.74-.13-3.88.8-7.76,1.52-11.55.4-2.09.5-4.81,1.32-6.78.21-.53.26-1.09.85-1.37C142.59,332.59,144.21,335.75,144.65,337Z" style="fill: rgb(235, 235, 235); transform-origin: 141.372px 353.948px;" id="elfdlgunsjuko" class="animable"></path><path d="M143,339.63c-1.12-.92-1.78,1.64-2,2.34-1.47,4.71-2.29,10.33-1.45,15.21.91,5.36,1.89,10.73,1.49,16.17-.05.17-.11.35-.16.53s0,.34-.05.51a.16.16,0,0,0,.2.17c0-.11,0-.21,0-.32.15-.51.3-1,.43-1.53l0-.1a101,101,0,0,0,1.88-11.13,72.26,72.26,0,0,0,.84-15.75,37,37,0,0,0-.48-3.79C143.63,341.31,143.51,340.08,143,339.63Zm.63,3.18a38.44,38.44,0,0,1,.41,4,72.85,72.85,0,0,1-.81,13.84,102.88,102.88,0,0,1-2,11.86,41.94,41.94,0,0,0-.4-9.29c-.32-2.32-.81-4.6-1.15-6.91a25.86,25.86,0,0,1,.28-7.8,33,33,0,0,1,1.56-7.22c.18-.45.7-1.47,1.1-1.4C143.32,340,143.52,342.28,143.59,342.81Z" style="fill: rgb(255, 255, 255); transform-origin: 141.753px 356.999px;" id="elms83k9ugoec" class="animable"></path><path d="M112.58,391.53s0,0,0,0" style="fill: rgb(235, 235, 235); transform-origin: 112.58px 391.53px;" id="elysrf8oqxihs" class="animable"></path><path d="M141.17,440.86a.18.18,0,0,1,.09.21h0a.19.19,0,0,1-.15.14.2.2,0,0,1-.15,0c-4.37-2.21-8.54-5.72-13.6-6-4-.21-7.37.28-11.13-1.34a29.79,29.79,0,0,1-10.06-7.22,30.81,30.81,0,0,1-3.43-4.53c-.48-.78-2-2.71-1.82-3.7,1-4.65,14.8,3.62,16.63,4.73,8.11,4.93,16.36,10.48,23.12,17.18a.07.07,0,0,1,0,.07s0,.07-.05.08C140.82,440.61,141,440.73,141.17,440.86Z" style="fill: rgb(235, 235, 235); transform-origin: 121.086px 429.119px;" id="el94yr9wftbnq" class="animable"></path><path d="M141.17,440.86c-.17-.13-.35-.25-.53-.37,0,0,0-.05.05-.08-4.48-3.39-9.24-6.48-14-9.45A139.74,139.74,0,0,0,110.8,422c-.76-.34-3.89-2.21-4.55-1s2.61,4,3.3,4.62c4.09,3.65,9.42,5.33,14.58,6.84a38.22,38.22,0,0,1,9.63,3.78c2.52,1.55,4.85,3.38,7.35,5a.19.19,0,0,0,.15-.14c-1.28-.81-2.52-1.71-3.75-2.59,1.25.85,2.5,1.72,3.75,2.58A.18.18,0,0,0,141.17,440.86ZM129.88,434c-5-2-10.4-2.82-15.23-5.29a21.5,21.5,0,0,1-6.24-4.63c-.34-.37-2-2-1.6-2.66.24-.44,1.55,0,1.74,0a39.83,39.83,0,0,1,4.17,1.86c4.72,2.41,9.31,5.13,13.81,7.93,2.5,1.55,4.94,3.16,7.37,4.81A24.17,24.17,0,0,0,129.88,434Z" style="fill: rgb(255, 255, 255); transform-origin: 123.718px 430.919px;" id="eluz429y5iljd" class="animable"></path><path d="M121.24,344.71c.54,4.19-.3,8.57-1.44,12.6-2.65,9.32-7.77,18-9.39,27.61-.06.38-.12.76-.17,1.13s0,.38-.14-.21h0c-.7-2.56-3.13-13.83-2-21.93.7-5.05,2.44-9.82,4.19-14.58,1-2.72,2-5.44,3-8.15.33-.87.79-3.35,2.11-3.54C119.89,337.26,121,343.07,121.24,344.71Z" style="fill: rgb(235, 235, 235); transform-origin: 114.606px 361.966px;" id="el57baqw82sbk" class="animable"></path><path d="M116.83,345.55a.86.86,0,0,0-1.13.3,4.41,4.41,0,0,0-.55,1.65c-.26,1-.51,2-.77,3-1.76,6.83-4.14,13.8-4.8,20.85a58.62,58.62,0,0,0,.51,14.06v.46h0c.16.59.22.71.14.21s.11-.75.17-1.13c0-.53,0-1.05,0-1.58a42.44,42.44,0,0,1,2.39-10.59,108.06,108.06,0,0,0,4.81-20.13,21.1,21.1,0,0,0,.16-4.63C117.74,347.3,117.57,345.92,116.83,345.55Zm.62,2.21a8.8,8.8,0,0,1,.1,1,19.91,19.91,0,0,1-.06,2.18,50.73,50.73,0,0,1-.7,5.22A146.84,146.84,0,0,1,112,374.27a38.42,38.42,0,0,0-1.87,9.06,75.34,75.34,0,0,1-.39-7.78c0-6.66,1.88-13,3.52-19.35.41-1.58.81-3.17,1.22-4.75.2-.79.41-1.58.61-2.37l.3-1.19c.2-.8.09-1.13,1-1.38C117.47,346.22,117.3,346.84,117.45,347.76Z" style="fill: rgb(255, 255, 255); transform-origin: 113.597px 365.921px;" id="elsin1pjexyb8" class="animable"></path><path d="M127.88,383.7a53,53,0,0,1,2.55,9.57c1.08,6.55.08,14.11,1.8,20.63.15.42.29.86.41,1.3.05.16.09.32.13.49s-.12.13-.16.05c-.14-.27-.27-.55-.42-.83h0c-.07-.15-.15-.29-.22-.44-3.24-6.34-7.41-12.15-8.79-19.28-.85-4.38-2.21-16.47.69-17.39C125.16,377.38,127.17,381.82,127.88,383.7Z" style="fill: rgb(235, 235, 235); transform-origin: 127.442px 396.79px;" id="el0hjdf5jg5en8" class="animable"></path><path d="M125.25,384.34c-.69.33-.67,1.68-.71,2.25a27.22,27.22,0,0,0,.16,4.51,45.14,45.14,0,0,0,1.63,8.22A89,89,0,0,0,132,414.46c.07.15.15.29.22.44h0c.15.28.28.56.42.83,0,.08.18,0,.16-.05s-.08-.33-.13-.49c-2.14-5.59-3-11.47-3.77-17.42C128.71,396.44,127.62,383.22,125.25,384.34Zm2.16,5.37c.21,1.25.38,2.5.55,3.76.39,2.92.72,5.86,1.14,8.78a67.69,67.69,0,0,0,2,9.44,114.71,114.71,0,0,1-4-10.78,62.14,62.14,0,0,1-1.79-7.36,31.15,31.15,0,0,1-.42-4.09c0-.66-.3-4.45.48-4.77C126.37,384.29,127.32,389.17,127.41,389.71Z" style="fill: rgb(255, 255, 255); transform-origin: 128.655px 400.018px;" id="elkfzvhve0ah" class="animable"></path><path d="M155.53,370.79c1.6,2,.85,5.88,0,7.95a18.75,18.75,0,0,1-6,7.24c-3.6,2.85-7.63,5-10.66,8.57s-2,2.43-4.15,6.9c0,.09-.13.09-.2,0a.92.92,0,0,1-.13-.72.6.6,0,0,1,0-.12c1.94-7.34,5.71-13.12,10.7-18.85,2.84-3.25,4.55-7.37,7.5-10.5C153.7,370.12,154.43,369.43,155.53,370.79Z" style="fill: rgb(235, 235, 235); transform-origin: 145.418px 385.778px;" id="elz3csyt5mzy" class="animable"></path><path d="M153.84,374.65c-1.08-.51-2.44,1.68-3,2.48a46,46,0,0,1-5.16,6.56,55.52,55.52,0,0,0-5,5.38,36.77,36.77,0,0,0-5.47,9.83c-.29.6-.55,1.21-.79,1.85a.92.92,0,0,0,.13.72,2.41,2.41,0,0,0,.08-.25,25.19,25.19,0,0,1,8.9-11.47c4.12-3.12,8-6.59,10.19-11.37C154.08,377.53,154.84,375.13,153.84,374.65Zm-.17,3.12a22.63,22.63,0,0,1-1.23,2.4,25.12,25.12,0,0,1-2.91,3.91,45.75,45.75,0,0,1-6.48,5.63,27.36,27.36,0,0,0-6.79,7.22,37.72,37.72,0,0,1,5.11-8.35c1.85-2.27,4.12-4.11,6-6.32.87-1,1.65-2.11,2.43-3.2.41-.6.83-1.2,1.25-1.79s1.54-2.4,2.33-2.24C154.43,375.22,153.81,377.44,153.67,377.77Z" style="fill: rgb(255, 255, 255); transform-origin: 144.366px 388.022px;" id="elw0ulgn46jo9" class="animable"></path><path d="M88.26,352.25c6.49,7.34,12.53,15,18.27,23a.24.24,0,0,1,0,.3.33.33,0,0,1,0,.06l.11.15a.11.11,0,0,1,0,.15l0,0h0a.12.12,0,0,1-.11,0c-4-4-7.86-7.68-13-10.31-4.67-2.4-9.26-4.39-13.31-7.8C76.71,354.84,66.9,340.45,68.5,337,69.58,334.7,83.09,346.43,88.26,352.25Z" style="fill: rgb(235, 235, 235); transform-origin: 87.4973px 356.314px;" id="elvm93m1pblc" class="animable"></path><path d="M80.22,347.36c-.85-.82-3.33-4-4.92-3.39s.94,3.91,1.41,4.6a47.26,47.26,0,0,0,5.78,7.14c2.19,2.14,4.79,3.55,7.32,5.22a91.17,91.17,0,0,1,16.72,15h0l0,0a.11.11,0,0,0,0-.15l-.11-.15a.33.33,0,0,0,0-.06C98.7,365.33,89.41,356.3,80.22,347.36ZM106,375.2a105.72,105.72,0,0,0-11-10.74c-4.58-3.84-10.11-6.31-14.07-10.86a35.88,35.88,0,0,1-5.19-7.2c-.17-.35-.82-1.52-.38-2s1.5.1,2.9,1.38c1.16,1.06,2.26,2.19,3.38,3.29,4.43,4.33,8.83,8.67,13.08,13.18Q100.57,368.51,106,375.2Z" style="fill: rgb(255, 255, 255); transform-origin: 90.6705px 359.911px;" id="elyjnww494ov" class="animable"></path><path d="M115.27,406a.15.15,0,0,1,0,.11.17.17,0,0,1-.21.11l-.62-.2s0,0-.06,0c-4.64-.6-8.41.19-12.88,1.33a20.47,20.47,0,0,1-10,0,34.27,34.27,0,0,1-10.13-4.57C80,402,76,400.12,76.61,397.88c1.1-3.68,13.47,1.12,15.62,1.81a96.57,96.57,0,0,0,11.59,3.1c3.88.75,7.76,1.39,11.37,3.08A.11.11,0,0,1,115.27,406Z" style="fill: rgb(235, 235, 235); transform-origin: 95.9138px 402.238px;" id="el23gnizho7vj" class="animable"></path><path d="M112.81,405.43h0c-2.24-.51-4.47-1.12-6.74-1.51-2.53-.45-5.12-.39-7.66-.83-4.76-.82-9.29-2.55-14-3.6-.61-.13-1.82-.37-1.5.67.14.46.79.83,1.14,1.07a22.45,22.45,0,0,0,3.31,1.95,28,28,0,0,0,12.86,3c5.07-.24,10-1.19,15-.11a.15.15,0,0,0,0-.11A14.85,14.85,0,0,0,112.81,405.43Zm-11,.31a28,28,0,0,1-16-3.77,22.74,22.74,0,0,1-2-1.36c-.39-.33-1-1,.54-.84a7.85,7.85,0,0,1,1,.25c1.21.3,2.42.64,3.63,1,2.57.73,5.14,1.51,7.77,2.06a49,49,0,0,0,7,.84,56.84,56.84,0,0,1,8.49,1.45C108.85,404.93,105.27,405.46,101.81,405.74Z" style="fill: rgb(255, 255, 255); transform-origin: 99.0438px 402.776px;" id="elv91kjckka78" class="animable"></path><path d="M101.89,395.93a.37.37,0,0,1,0,.21.49.49,0,0,1,0,.11.31.31,0,0,1-.09.11,0,0,0,0,1,0,0,.31.31,0,0,1-.33,0,15.37,15.37,0,0,1-2-.9c-7.7-2.93-15.58-6-21.84-11.46a50.71,50.71,0,0,1-8.36-9.49c-1.18-1.7-4.43-5.28-3.35-7.68s3.17-.85,4.61.13a109.27,109.27,0,0,1,10.77,8.13,59.7,59.7,0,0,1,9,9.79c3.15,4.3,6.17,8.75,11.36,10.7A.37.37,0,0,1,101.89,395.93Z" style="fill: rgb(235, 235, 235); transform-origin: 83.8043px 380.982px;" id="elj7sjokkpq4e" class="animable"></path><path d="M87.69,385.05a131.44,131.44,0,0,0-14.06-12.73c-.64-.51-2.5-1.83-2.79-.35-.33,1.74,2.24,3.79,3.22,4.82a98.25,98.25,0,0,0,12,10.93,55.38,55.38,0,0,0,15.76,8.53.49.49,0,0,0,0-.11c-9.32-3.45-17.39-9.51-24.44-16.41-1.69-1.66-3.41-3.34-5-5.15-.25-.29-1.67-2.23-1.12-2.76s2.5,1.13,2.73,1.33c1.13.93,2.24,1.86,3.36,2.8a154.46,154.46,0,0,1,11.85,11.32,37.62,37.62,0,0,0,12.59,8.87.37.37,0,0,0,0-.21C96.25,393.44,91.9,389.53,87.69,385.05Z" style="fill: rgb(255, 255, 255); transform-origin: 86.317px 383.77px;" id="elcur9u4idscn" class="animable"></path><path d="M87.75,315.92a37.29,37.29,0,0,1,6.07,11.53c1.88,6.49,1.77,13.29,2.7,19.93,0,0,0,.06,0,.08a45.1,45.1,0,0,0,1.06,5.37c.09.37.2.75.31,1.13a.25.25,0,0,1,0,.23.35.35,0,0,1-.16.08.3.3,0,0,1-.16,0h0a.29.29,0,0,1-.18-.18c-.19-.54-.35-1.07-.52-1.61a.13.13,0,0,1-.08-.07c-4-8.3-8.47-16.68-13-24.89a66.13,66.13,0,0,1-5.13-11.35c-.76-2.34-1.69-5.94,0-8.11a.51.51,0,0,1,.45-.24C82.89,308.45,85.7,313.11,87.75,315.92Z" style="fill: rgb(235, 235, 235); transform-origin: 87.8141px 331.05px;" id="elb5cis7td1o9" class="animable"></path><path d="M83.6,316.45c-1.79-.58-1.43,1.54-1.13,2.62a76.48,76.48,0,0,0,3.16,8.38q1.89,4.64,3.92,9.23c2.55,5.76,6.11,11.5,8,17.55v0h0a.3.3,0,0,0,.16,0,.35.35,0,0,0,.16-.08c-.1-.46-.19-.91-.28-1.36q-.54-2.68-1.06-5.37s0,0,0-.08c-1.7-8.6-3.57-17.14-8.09-25C87.37,320.51,85.81,317.16,83.6,316.45ZM89,324a62.49,62.49,0,0,1,5.71,15.77c1,4.36,1.65,8.77,2.55,13.13-1.25-3.5-3.08-6.84-4.65-10.23q-3.72-8-7-16.18c-.53-1.31-1-2.62-1.56-3.94-.45-1.17-1.42-3-1.42-4.27,0-2.48,2.06-.8,2.73-.07a14.31,14.31,0,0,1,1.51,2.12C87.6,321.5,88.31,322.73,89,324Z" style="fill: rgb(255, 255, 255); transform-origin: 90.0463px 335.296px;" id="elq4gr8o9jgap" class="animable"></path><path d="M142.62,360.68a179.67,179.67,0,0,1-4.91,24c-2,7.22-4.11,14.44-5.09,21.89-1.31,9.89-.41,20.74,4.63,29.34a116.56,116.56,0,0,1-19.87-33.21c-8.12-20.41-15.49-41.39-25.36-61.05-.16-.33-.61-.08-.49.25,4,10.73,8.8,21.21,12.93,31.91s7.93,21.4,12.23,32c.46,1.14,1,2.27,1.45,3.39-6.3-7.81-15.54-13.56-24.61-16.9-.11,0-.16.13,0,.18A64.08,64.08,0,0,1,111,404c4.51,4.16,8,9,11.58,13.86a98.3,98.3,0,0,0,34.31,35.8.14.14,0,0,0,.14-.24,98.39,98.39,0,0,1-15.86-13.31c-8.11-10.74-8.49-25.07-6.07-38.09,1.26-6.83,3.07-13.53,4.69-20.28s3.43-14,3.26-21.06A.2.2,0,0,0,142.62,360.68Z" style="fill: rgb(235, 235, 235); transform-origin: 124.297px 397.583px;" id="el3tqxxpo8hzh" class="animable"></path></g><g id="freepik--Light--inject-55" class="animable" style="transform-origin: 250px 476.85px;"><g id="elki1ro0xeup"><polygon points="359.11 453.7 140.89 453.7 36.37 500 463.63 500 359.11 453.7" style="fill: rgb(146, 227, 169); opacity: 0.3; transform-origin: 250px 476.85px;" class="animable"></polygon></g><g id="el71gtuf7vr6g"><polygon points="344.59 453.7 155.41 453.7 70.89 500 429.11 500 344.59 453.7" style="fill: rgb(146, 227, 169); opacity: 0.3; transform-origin: 250px 476.85px;" class="animable"></polygon></g></g><g id="freepik--Plants--inject-55" class="animable" style="transform-origin: 249.98px 353.009px;"><path d="M364,328.57a43.86,43.86,0,0,1-2.21,5.48c.53-1.2,1-2.43,1.49-3.65Z" style="fill: rgb(146, 227, 169); transform-origin: 362.895px 331.31px;" id="el52rxh36oyf" class="animable"></path><path d="M333.66,452.78c-.45.44.26,1.2.74.81a125.85,125.85,0,0,0,31.79-39A66.32,66.32,0,0,0,388,396.15l.07,0c7.78,1.71,16.32,2.68,23-2.52,6.23-4.86,10.19-13.58,13.55-20.47l.17-.06a.32.32,0,0,0-.22-.61,113.45,113.45,0,0,0-21.27,8.71c-5.9,3.26-9.49,8.22-13.92,13,6.78-9.1,11.91-19.6,15.87-30.09a.4.4,0,0,0,.26-.36c0-.11,0-.24,0-.36l.14-.35a.33.33,0,0,0,0-.1c6.75-3.39,12.23-5.85,15.37-13,3.89-8.87,2.58-17.57,2-26.9a.42.42,0,0,0-.73-.23c-5.3,5.17-11.49,10.47-14.63,17.32-3.33,7.24-3.29,15.8-3.15,23.62a.44.44,0,0,0,.11.28c-9.37,19.1-20.64,35.79-37.56,48.77,14.38-28.32,18.52-61.31,16.78-94l0-.05c19.81,0,21.41-18.61,24.61-34.1,0,0,.13-.63.16-.8a0,0,0,0,1,0,0h0a.07.07,0,0,0-.08-.11c-.06,0-13.72,8.66-18,14.73-3.53,4.95-5.13,11.24-6.87,17.17-.42-6.37-1-12.73-1.85-19l.39-1a.14.14,0,0,0,.15-.18l0-.09c2.61-6.35,5.21-12.69,4.78-19.71-.5-8.11-4.23-16-7.79-23.2,0-.09-.41-.08-.4-.06-3.48,7-8.31,15.39-7.74,23.48.54,7.46,6.28,13.64,9.8,19.85a.52.52,0,0,0,.1.11c1,26.67,2.56,53.48-2.92,79.68a121.14,121.14,0,0,1-18.44-36.8c5.87-2.43,10.49-5.86,12.45-12.19a42.7,42.7,0,0,0-.49-26.15h0a.28.28,0,0,0-.15-.17.43.43,0,0,0-.68.35c-9.41,9.37-13,19.15-13,31.25a186.07,186.07,0,0,1-4.38-23.39c8.21-11.41-.77-22.38-5.33-33.57-.13-.32-.67-.23-.61.13l.09.4c-6.36,12.68-5.05,24.95,4.75,35.64a.65.65,0,0,0,.23.15,102.71,102.71,0,0,0,8.63,38.25,30.24,30.24,0,0,0-8-8.13c-6.28-4.18-13.3-3.49-20.5-3.86a.4.4,0,0,0-.19,0h-.1a.58.58,0,0,0-.46,1,.36.36,0,0,0,0,.07c7.44,10.09,17.87,23.81,32.13,17.64l.54.69a129.28,129.28,0,0,0,12.85,20.38.87.87,0,0,0,.29.23c-.51,2.29-1,4.58-1.68,6.86a142,142,0,0,1-26.36,51.06c-4.07-15.12-5.74-28.9-3.38-44.64,7.51-10.72,4.27-22.22-.77-33.62h0a.32.32,0,0,0-.59-.1c-3.27,5.2-7.78,11.94-7.8,18.31s4,12,7.86,16.6l.1.07a88.81,88.81,0,0,0-1.65,20.9,33.91,33.91,0,0,0-6.58-14.6c-4.33-5.28-9.9-7.18-16.31-9-.52-.15-.53,24.76,22.75,26.12.12.37.25.74.37,1.1a71.19,71.19,0,0,0,4.74,20.45A170.76,170.76,0,0,1,333.66,452.78ZM343,414.39c-5.8-2.06-12.07-3.88-16-8.94-3.61-4.69-4.11-9.27-5.9-15,6.13,2.69,11.45,3.79,15.88,10C340,404.63,341.44,409.57,343,414.39Zm2.42-24c-4-4.85-7.45-10.83-6.26-17.24,1-5.38,3.95-10.17,6.08-15.2,1.44,4.74,2.84,9.54,3.85,14.39,1.46,6.95-.52,11.79-3.26,17.71a.41.41,0,0,0-.41.34Zm6.78-81.94A33.58,33.58,0,0,1,345.29,294c-1.18-6.36,1.32-11.6,2.52-17.62,1,4.13,3.11,7.69,4.92,11.59C356,295,356.1,301.63,352.24,308.42Zm8,28.42-.32.18a97.78,97.78,0,0,1,3.34-18c1.72-5.64,4.88-10.56,7.22-15.9a118.25,118.25,0,0,1-4,17.46c-.78,2.49-1.54,5.24-2.46,8,1-2.59,2-5.18,2.83-7.82a90.19,90.19,0,0,0,4-18.58l.1-.25c-.51,7,1.12,14-.91,20.9a27.13,27.13,0,0,1-9.56,13.8,22.91,22.91,0,0,0,1.3-2.57A25.17,25.17,0,0,1,360.2,336.84Zm10.37-34.62c0,.11,0,.21,0,.32-3,5.4-6,10.95-7.79,16.88-1.72,5.76-2.38,11.77-3.08,17.72l-.2.11c.11-7.32-.45-14.83,2.59-21.69C364.15,310.8,367.69,306.62,370.57,302.22Zm-8.51,33.55a26.47,26.47,0,0,0,7.9-11.56c2.49-7.07,1-14.23,1.16-21.49.74,5.76,1.49,11.18.78,17.14C370.91,328.12,367.92,332.16,362.06,335.77Zm1.29,19.37c-6,.78-11.48.72-17-2.54s-8.86-8.84-12.49-13.85c6.32.82,12.66.13,18.3,3.86C357.08,345.85,359.91,350.65,363.35,355.14Zm19.37-65.76a90.31,90.31,0,0,0-3-35.2c2.63,6.59,5.11,13,5.59,20.24C385.7,279.84,384,284.53,382.72,289.38Zm-1.2,3.73a253.22,253.22,0,0,0-2-38.54,102,102,0,0,1,2.63,37.36c-.13.59-.25,1.18-.35,1.78C381.68,293.51,381.6,293.31,381.52,293.11Zm-5.42-19.56c-.14-6.73,1.9-13.43,3.11-20a326.06,326.06,0,0,1,2.24,39.38C379.09,286.64,376.24,280.25,376.1,273.55Zm5.17,19.8c-3.27-5.53-7.65-11.11-8-17.69-.37-6.93,3.41-16.06,5.84-22.6-1.58,6.79-3.62,14.11-3.33,21.1C376,280.74,378.83,287.2,381.27,293.35Zm9.53,11.54h0c4.09-7.83,11-12.73,16.69-19.1a69.62,69.62,0,0,1-9,16.75c-3.95,5.47-9.15,9.78-13.84,14.57,1.58-3.6,3.28-7.12,5.21-10.57,0,0,0-.08-.06,0a70.63,70.63,0,0,0-5.22,9.84c2.17-6.28,4.7-13.43,8.68-18.44,4.31-5.45,9.79-8.73,14.65-13.21,0,.1-.07.19-.1.29C401.57,290.87,394.67,297.21,390.8,304.89Zm16.13-16.4c-1.75,6-3.43,12.13-6.93,17.27a33.07,33.07,0,0,1-15.63,12c5.12-4.54,10.37-9.44,14.38-15a74.82,74.82,0,0,0,5.18-8.53C404.94,292.36,406,290.45,406.93,288.49Zm-22.81,29.75c.05-.12.11-.24.16-.37A32.06,32.06,0,0,0,399.39,307a38.76,38.76,0,0,0,6.07-12.16A59.15,59.15,0,0,1,403,303C399.44,311.89,393.2,316.21,384.12,318.24Zm21.5,44.35c.31-7.48.62-16.21,4.09-22.8,1.45-2.74,11.91-14.9,12.36-15,0,0,.65,16.12-2.12,23.19C417,355.68,411,357.44,405.62,362.59Zm-16.48,32.6c5.12-4.31,8.7-9.7,14.79-13,6.42-3.52,13.35-6,20.11-8.71-3.59,5.29-6.46,11.22-10.69,16C406.74,397,398.16,396.54,389.14,395.19Z" style="fill: rgb(146, 227, 169); transform-origin: 372.763px 353.042px;" id="elqwizgfavxp" class="animable"></path><path d="M352.09,307.29c0,.48.05,1,.06,1.45,0,.13.2.16.21,0s0-.52,0-.77c.08.16.15.33.22.5-.08.4-.17.81-.26,1.21,0,.06.08.06.09,0,.08-.36.15-.73.23-1.09l.28.67s.07,0,.05,0c-.1-.25-.21-.5-.32-.74,2.17-10.58-.41-21.08-4.27-31-.07-.34-.12-.69-.19-1a.07.07,0,0,0-.07-.06.11.11,0,0,0-.18-.05l-.12-.28a.07.07,0,0,0-.13,0c0,.21.11.42.17.63a70.45,70.45,0,0,0-.38,16.48C348.06,298.3,350.11,302.73,352.09,307.29Zm-3.79-29c1.23,9.63,3.32,19.15,3.79,28.86-1.91-4.49-3.73-9-4.26-13.92a83.32,83.32,0,0,1,.25-15.71C348.15,277.76,348.23,278,348.3,278.27Zm4.1,29.59c.21-4.76-.7-9.52-1.41-14.21-.68-4.44-1.32-8.88-2.07-13.3,1.25,4,2.72,8,3.65,12.17a38.23,38.23,0,0,1,.06,15.87Z" style="fill: rgb(146, 227, 169); transform-origin: 350.304px 292.906px;" id="el8u8ki90cg6g" class="animable"></path><path d="M332.56,338.67l1.44.21c1.42,2.66,4,5,6.09,7.07a32.5,32.5,0,0,0,7.1,5.47,29,29,0,0,0,16.14,3.51l.53.52c.05,0,.12,0,.08-.07h0a0,0,0,0,0,0-.08l-.33-.27-.09-.11.88-.07s0,0,0,0l-.93.06c-3.82-4.4-8.59-8.91-13.67-11.7-4.88-2.68-10.38-3.77-15.85-4.57l-.18-.26a0,0,0,0,0-.05,0c0,.07.07.14.11.22h-.07l-.15-.05a.06.06,0,0,0-.07,0l-1-.14C332.41,338.37,332.38,338.64,332.56,338.67Zm29.94,15.45a93,93,0,0,0-27.12-15c4.94.79,9.86,1.94,14.27,4.38C354.49,346.17,358.55,350.24,362.5,354.12Zm-28.3-15.21.14,0a105.33,105.33,0,0,1,28.88,15.89l.06.06C351.15,355.47,341.09,348.56,334.2,338.91Z" style="fill: rgb(146, 227, 169); transform-origin: 348.417px 346.915px;" id="elojg3lh9agur" class="animable"></path><path d="M344.93,391.17c-.07.15.17.24.23.09s.18-.46.28-.7l.36.84a.09.09,0,0,0,.17-.08l-.42-1c3.92-9.95,3.07-20.39.19-30.44-.07-.67-.14-1.34-.23-2,0-.05-.07,0-.07,0,0,.38,0,.76.05,1.14-.07-.21-.12-.42-.19-.63l.09-.27s0-.05-.05,0a1.34,1.34,0,0,0-.07.18l-.09-.29c0-.06-.12,0-.1,0s.07.3.11.45c-2,5.27-3.88,10.71-3.87,16.41,0,5.27,1.83,10.34,3.88,15.15,0,.1,0,.2-.05.29a0,0,0,1,0,.08,0l0-.16,0,.06C345.16,390.53,345.05,390.85,344.93,391.17Zm.47-1.27-.08-.2a61.16,61.16,0,0,0,.79-13.31h0a69.35,69.35,0,0,1-.83,13.19c-2-5.07-3.8-10.16-3.56-15.73.24-5.24,1.94-10.3,3.52-15.26.09.39.19.79.29,1.18.2,4.12.53,8.24.57,12.37,0,0,.06.05.06,0,0-3.7,0-7.39-.3-11.07A56.45,56.45,0,0,1,348,375,46,46,0,0,1,345.4,389.9Z" style="fill: rgb(146, 227, 169); transform-origin: 344.76px 374.656px;" id="el1d8a2x53zna" class="animable"></path><path d="M320.85,390.57l.35.21c3.74,10.36,12,20.23,22.58,23.82a0,0,0,0,0,0-.07c-5.54-2.83-10.26-5.76-14.4-10.5a46.49,46.49,0,0,1-7.93-13.09l.63.38A129.18,129.18,0,0,1,342.59,413l.33.66s0,0,0,0l-.18-.44c.2.28.42.55.62.84,0,0,.12,0,.09-.06-.37-.58-.74-1.15-1.12-1.72-2-4.7-4.33-9.18-8-12.84a55.9,55.9,0,0,0-12.6-8.75l-.48-.38-.21-.5c0-.08-.15,0-.12.06l.1.3a.1.1,0,0,0-.05.15C320.79,390.31,320.71,390.48,320.85,390.57Zm3.07,1.83A52.09,52.09,0,0,1,334,399.67c3.45,3.39,5.78,7.65,7.94,11.94A91.34,91.34,0,0,0,323.92,392.4Z" style="fill: rgb(146, 227, 169); transform-origin: 332.279px 402.188px;" id="elmhyxefgikte" class="animable"></path><path d="M405.25,363l.12-.26a.16.16,0,0,0,.14,0c5-4.62,10.13-10.39,12.88-16.67a41.35,41.35,0,0,0,2.51-9.87,102.84,102.84,0,0,0,1.49-12.23.17.17,0,0,0-.34,0q-.15,1-.27,1.92c-2.4,6.44-4.61,13-7.63,19.14-2.83,5.8-6.11,11.34-8.66,17.26l-.21.22a.19.19,0,0,0,0,.26l-.12.28C405.13,363,405.23,363,405.25,363Zm.46-1c2.58-5.81,6-11.22,8.73-16.93a142.82,142.82,0,0,0,7.29-18.87c-.81,6.25-1.21,12.76-3.44,18.67C415.81,351.37,410.52,357,405.71,362Z" style="fill: rgb(146, 227, 169); transform-origin: 413.772px 343.425px;" id="elr98w6nwe9m" class="animable"></path><path d="M404.89,363.05c2.16-6.55,1.86-13.41,4.88-19.75a55.66,55.66,0,0,1,10-14.87s.1,0,.07.06a58.59,58.59,0,0,0-10.34,16.28C407,350.62,407,357.1,405,363.11A.08.08,0,0,1,404.89,363.05Z" style="fill: rgb(146, 227, 169); transform-origin: 412.368px 345.773px;" id="el8ertng3qo2u" class="animable"></path><path d="M387.1,394.53q.67.2,1.38.33c0,.07,0,.15.1.13l.25-.05.32.06-.19.14c-.14.09,0,.29.17.2l.4-.27c7.08,1.22,14.76-.73,20.79-4.49,6.41-4,9.74-11.53,14.34-17.27.09-.12-.09-.29-.19-.18-.38.37-.73.76-1.08,1.15.18-.25.38-.49.57-.74a0,0,0,0,0-.07-.06c-5,5-9.84,9.86-15.92,13.57a65.85,65.85,0,0,1-17.14,7.15c5.26-3.54,10.05-7.63,15.58-10.83,5.81-3.36,11.67-6.61,17.48-9.95a0,0,0,1,0,0-.08c-6.36,3-12.42,6.75-18.48,10.29-5.46,3.18-10.25,7.19-15.4,10.8l-.63.16a18.09,18.09,0,0,1-2.09-.47C387,394.05,386.83,394.45,387.1,394.53Zm3.09.11c11.52-2.63,23.67-9.16,31.5-18.26-3.13,4.22-5.48,9.09-9.65,12.42a29.61,29.61,0,0,1-22,5.92Z" style="fill: rgb(146, 227, 169); transform-origin: 405.824px 384.264px;" id="eld37awfu3ia" class="animable"></path><path d="M136,328.57a43.86,43.86,0,0,0,2.21,5.48c-.53-1.2-1-2.43-1.49-3.65Z" style="fill: rgb(146, 227, 169); transform-origin: 137.105px 331.31px;" id="el18gf8rk1ugh" class="animable"></path><path d="M151.53,436.87a71.19,71.19,0,0,0,4.74-20.45c.12-.36.25-.73.37-1.1,23.28-1.36,23.27-26.27,22.75-26.12-6.41,1.84-12,3.74-16.31,9a33.91,33.91,0,0,0-6.58,14.6,88.81,88.81,0,0,0-1.65-20.9l.1-.07c3.84-4.59,7.88-10.33,7.86-16.6s-4.53-13.11-7.8-18.31a.32.32,0,0,0-.59.1h0c-5,11.4-8.28,22.9-.77,33.62,2.36,15.74.69,29.52-3.38,44.64a142,142,0,0,1-26.36-51.06c-.63-2.28-1.17-4.57-1.68-6.86a.87.87,0,0,0,.29-.23,129.28,129.28,0,0,0,12.85-20.38l.54-.69c14.26,6.17,24.69-7.55,32.13-17.64a.36.36,0,0,0,0-.07.58.58,0,0,0-.46-1h-.1a.4.4,0,0,0-.19,0c-7.2.37-14.22-.32-20.5,3.86a30.1,30.1,0,0,0-8,8.13,102.71,102.71,0,0,0,8.63-38.25.65.65,0,0,0,.23-.15c9.8-10.69,11.11-23,4.75-35.64l.09-.4c.06-.36-.48-.45-.61-.13-4.56,11.19-13.54,22.16-5.33,33.57a186.07,186.07,0,0,1-4.38,23.39c-.06-12.1-3.63-21.88-13-31.25a.43.43,0,0,0-.68-.35.28.28,0,0,0-.15.17h0a42.7,42.7,0,0,0-.49,26.15c2,6.33,6.58,9.76,12.45,12.19a121.14,121.14,0,0,1-18.44,36.8c-5.48-26.2-3.89-53-2.92-79.68a.52.52,0,0,0,.1-.11c3.52-6.21,9.26-12.39,9.8-19.85.57-8.09-4.26-16.5-7.74-23.48,0,0-.43,0-.4.06-3.56,7.19-7.29,15.09-7.79,23.2-.43,7,2.17,13.36,4.78,19.71l0,.09a.14.14,0,0,0,.15.18l.39,1c-.82,6.31-1.43,12.67-1.85,19-1.74-5.93-3.34-12.22-6.87-17.17-4.32-6.07-18-14.75-18-14.73a.07.07,0,0,0-.08.11h0a0,0,0,0,1,0,0c0,.17.13.76.16.8,3.2,15.49,4.8,34.06,24.61,34.1l0,.05c-1.74,32.7,2.4,65.69,16.78,94-16.92-13-28.19-29.67-37.56-48.77a.44.44,0,0,0,.11-.28c.14-7.82.18-16.38-3.15-23.62C89.16,333.29,83,328,77.67,322.82a.42.42,0,0,0-.73.23c-.61,9.33-1.92,18,2,26.9,3.14,7.19,8.62,9.65,15.37,13a.33.33,0,0,0,0,.1l.14.35c0,.12,0,.25,0,.36a.4.4,0,0,0,.26.36c4,10.49,9.09,21,15.87,30.09-4.43-4.81-8-9.77-13.92-13a113.45,113.45,0,0,0-21.27-8.71.32.32,0,0,0-.22.61l.17.06c3.36,6.89,7.32,15.61,13.55,20.47,6.7,5.2,15.24,4.23,23,2.52l.07,0a66.32,66.32,0,0,0,21.85,18.41,125.85,125.85,0,0,0,31.79,39c.48.39,1.19-.37.74-.81A170.76,170.76,0,0,1,151.53,436.87ZM163,400.46c4.43-6.18,9.75-7.28,15.88-10-1.79,5.69-2.29,10.27-5.9,15-3.9,5.06-10.17,6.88-16,8.94C158.56,409.57,160,404.63,163,400.46Zm-8.41-10.1a.41.41,0,0,0-.41-.34c-2.74-5.92-4.72-10.76-3.26-17.71,1-4.85,2.41-9.65,3.85-14.39,2.13,5,5.08,9.82,6.08,15.2,1.19,6.41-2.22,12.39-6.26,17.24ZM147.27,288c1.81-3.9,3.89-7.46,4.92-11.59,1.2,6,3.7,11.26,2.52,17.62a33.58,33.58,0,0,1-7,14.42C143.9,301.63,144,295,147.27,288Zm-9.05,46.08a22.91,22.91,0,0,0,1.3,2.57,27.13,27.13,0,0,1-9.56-13.8c-2-6.9-.4-13.89-.91-20.9l.1.25a90.19,90.19,0,0,0,4,18.58c.84,2.64,1.82,5.23,2.83,7.82-.92-2.72-1.68-5.47-2.46-8a118.25,118.25,0,0,1-4-17.46c2.34,5.34,5.5,10.26,7.22,15.9a97.78,97.78,0,0,1,3.34,18l-.32-.18A25.17,25.17,0,0,1,138.22,334.05ZM138,315.56c3,6.86,2.48,14.37,2.59,21.69l-.2-.11c-.7-5.95-1.36-12-3.08-17.72-1.77-5.93-4.77-11.48-7.79-16.88,0-.11,0-.21,0-.32C132.31,306.62,135.85,310.8,138,315.56Zm-9.85,4.3c-.71-6,0-11.38.78-17.14.13,7.26-1.33,14.42,1.16,21.49a26.47,26.47,0,0,0,7.9,11.56C132.08,332.16,129.09,328.12,128.1,319.86Zm19.71,22.75c5.64-3.73,12-3,18.3-3.86-3.63,5-7.14,10.66-12.49,13.85s-11,3.32-17,2.54C140.09,350.65,142.92,345.85,147.81,342.61Zm-33.15-68.19c.48-7.27,3-13.65,5.59-20.24a90.31,90.31,0,0,0-3,35.2C116,284.53,114.3,279.84,114.66,274.42Zm3.59,19.29c-.1-.6-.22-1.19-.35-1.78a102,102,0,0,1,2.63-37.36,253.22,253.22,0,0,0-2,38.54C118.4,293.31,118.32,293.51,118.25,293.71Zm.3-.8a326.06,326.06,0,0,1,2.24-39.38c1.21,6.59,3.25,13.29,3.11,20S120.91,286.64,118.55,292.91Zm5.68-18.75c.29-7-1.75-14.31-3.33-21.1,2.43,6.54,6.21,15.67,5.84,22.6-.36,6.58-4.74,12.16-8,17.69C121.17,287.2,124,280.74,124.23,274.16ZM92.22,285c0-.1-.06-.19-.1-.29,4.86,4.48,10.34,7.76,14.65,13.21,4,5,6.51,12.16,8.68,18.44a70.63,70.63,0,0,0-5.22-9.84s-.09,0-.06,0c1.93,3.45,3.63,7,5.21,10.57-4.69-4.79-9.89-9.1-13.84-14.57a69.62,69.62,0,0,1-9-16.75c5.7,6.37,12.6,11.27,16.69,19.1h0C105.34,297.21,98.43,290.87,92.22,285Zm3.85,9.24a74.82,74.82,0,0,0,5.18,8.53c4,5.55,9.26,10.45,14.38,15a33.07,33.07,0,0,1-15.63-12c-3.5-5.14-5.18-11.29-6.93-17.27C94,290.45,95.06,292.36,96.07,294.23ZM97,303a59.15,59.15,0,0,1-2.46-8.14A38.76,38.76,0,0,0,100.61,307a32.06,32.06,0,0,0,15.11,10.86c0,.13.11.25.16.37C106.8,316.21,100.56,311.89,97,303Zm-17,45c-2.77-7.07-2.12-23.19-2.12-23.19.45.08,10.91,12.24,12.36,15,3.47,6.59,3.77,15.32,4.09,22.8C89.05,357.44,83.05,355.68,80.05,348Zm6.6,41.47c-4.23-4.81-7.1-10.74-10.69-16,6.76,2.74,13.69,5.19,20.11,8.71,6.09,3.34,9.67,8.73,14.79,13C101.84,396.54,93.26,397,86.65,389.47Z" style="fill: rgb(146, 227, 169); transform-origin: 127.237px 352.999px;" id="el8erjff2kl7l" class="animable"></path><path d="M152.49,293.26a70.45,70.45,0,0,0-.38-16.48c.06-.21.12-.42.17-.63a.07.07,0,0,0-.13,0l-.12.28a.11.11,0,0,0-.18.05.07.07,0,0,0-.07.06c-.07.34-.12.69-.19,1-3.86,9.92-6.44,20.42-4.27,31-.11.24-.22.49-.32.74,0,0,0,.06.05,0l.28-.67c.08.36.15.73.23,1.09,0,.05.1.05.09,0-.09-.4-.18-.81-.26-1.21.07-.17.14-.34.22-.5,0,.25,0,.51,0,.77s.2.11.21,0c0-.48,0-1,.06-1.45C149.89,302.73,151.94,298.3,152.49,293.26Zm-.57-15.76a83.32,83.32,0,0,1,.25,15.71c-.53,4.89-2.35,9.43-4.26,13.92.47-9.71,2.56-19.23,3.79-28.86C151.77,278,151.85,277.76,151.92,277.5Zm-4.55,30.89a38.23,38.23,0,0,1,.06-15.87c.93-4.15,2.4-8.13,3.65-12.17-.75,4.42-1.39,8.86-2.07,13.3-.71,4.69-1.62,9.45-1.41,14.21Z" style="fill: rgb(146, 227, 169); transform-origin: 149.666px 292.922px;" id="el9oo0jt32i0p" class="animable"></path><path d="M167.41,338.4l-1,.14a.06.06,0,0,0-.07,0l-.15.05h-.07l.11-.22a0,0,0,0,0,0,0l-.18.26c-5.47.8-11,1.89-15.85,4.57-5.08,2.79-9.85,7.3-13.67,11.7l-.93-.06s0,0,0,0l.88.07-.09.11-.33.27a0,0,0,0,0,0,.08h0c0,.05,0,.11.08.07l.53-.52a29,29,0,0,0,16.14-3.51,32.5,32.5,0,0,0,7.1-5.47c2.1-2.08,4.67-4.41,6.09-7.07l1.44-.21C167.62,338.64,167.59,338.37,167.41,338.4Zm-17.06,5.08c4.41-2.44,9.33-3.59,14.27-4.38a93,93,0,0,0-27.12,15C141.45,350.24,145.51,346.17,150.35,343.48Zm-13.63,11.4.06-.06a105.33,105.33,0,0,1,28.88-15.89l.14,0C158.91,348.56,148.85,355.47,136.72,354.88Z" style="fill: rgb(146, 227, 169); transform-origin: 151.58px 346.912px;" id="el3xaz10ge82a" class="animable"></path><path d="M154.72,390.2l0-.06,0,.16a0,0,0,1,0,.08,0c0-.09,0-.19,0-.29,2-4.81,3.87-9.88,3.88-15.15,0-5.7-1.86-11.14-3.87-16.41,0-.15.08-.3.11-.45s-.08-.1-.1,0l-.09.29a1.34,1.34,0,0,0-.07-.18s-.06,0,0,0l.09.27c-.07.21-.12.42-.19.63,0-.38,0-.76.05-1.14,0,0-.07-.06-.07,0-.09.67-.16,1.34-.23,2-2.88,10.05-3.73,20.49.19,30.44l-.42,1a.09.09,0,0,0,.17.08l.36-.84c.1.24.18.47.28.7s.3.06.23-.09C155,390.85,154.84,390.53,154.72,390.2ZM152,375a56.45,56.45,0,0,1,2.15-13.92c-.28,3.68-.28,7.37-.3,11.07,0,0,.06,0,.06,0,0-4.13.37-8.25.57-12.37.1-.39.2-.79.29-1.18,1.58,5,3.28,10,3.52,15.26.24,5.57-1.54,10.66-3.56,15.73a69.35,69.35,0,0,1-.83-13.19h0a61.16,61.16,0,0,0,.79,13.31l-.08.2A46,46,0,0,1,152,375Z" style="fill: rgb(146, 227, 169); transform-origin: 155.265px 374.644px;" id="el3rwci1sedi" class="animable"></path><path d="M179.07,390.28a.1.1,0,0,0,0-.15l.1-.3c0-.08-.09-.14-.12-.06l-.21.5-.48.38a55.9,55.9,0,0,0-12.6,8.75c-3.72,3.66-6,8.14-8.05,12.84-.38.57-.75,1.14-1.12,1.72,0,.05.06.1.09.06.2-.29.42-.56.62-.84l-.18.44s0,0,0,0l.33-.66a129.18,129.18,0,0,1,20.48-21.65l.63-.38A46.26,46.26,0,0,1,170.59,404c-4.14,4.74-8.86,7.67-14.4,10.5a0,0,0,0,0,0,.07c10.61-3.59,18.84-13.46,22.58-23.82l.35-.21C179.29,390.48,179.21,390.31,179.07,390.28Zm-21,21.33c2.16-4.29,4.49-8.55,7.94-11.94a52.09,52.09,0,0,1,10.05-7.27A91.34,91.34,0,0,0,158.09,411.61Z" style="fill: rgb(146, 227, 169); transform-origin: 167.703px 402.151px;" id="elbklnf8mrk1i" class="animable"></path><path d="M94.84,362.94l-.12-.28a.19.19,0,0,0,0-.26l-.21-.22c-2.55-5.92-5.83-11.46-8.66-17.26-3-6.19-5.23-12.7-7.63-19.14q-.12-1-.27-1.92a.17.17,0,0,0-.34,0,102.84,102.84,0,0,0,1.49,12.23A41.35,41.35,0,0,0,81.61,346c2.75,6.28,7.89,12.05,12.88,16.67a.16.16,0,0,0,.14,0l.12.26C94.77,363,94.87,363,94.84,362.94ZM81.71,344.83c-2.23-5.91-2.63-12.42-3.44-18.67A142.82,142.82,0,0,0,85.56,345c2.78,5.71,6.15,11.12,8.73,16.93C89.48,357,84.19,351.37,81.71,344.83Z" style="fill: rgb(146, 227, 169); transform-origin: 86.2278px 343.337px;" id="el9873l7k8lis" class="animable"></path><path d="M95.11,363.05c-2.16-6.55-1.86-13.41-4.88-19.75a55.66,55.66,0,0,0-10-14.87s-.1,0-.07.06a58.59,58.59,0,0,1,10.34,16.28C93,350.62,93,357.1,95,363.11,95,363.2,95.14,363.14,95.11,363.05Z" style="fill: rgb(146, 227, 169); transform-origin: 87.6343px 345.792px;" id="el61h9c99x2yn" class="animable"></path><path d="M112.75,394.12a18.09,18.09,0,0,1-2.09.47l-.63-.16c-5.15-3.61-9.94-7.62-15.4-10.8-6.06-3.54-12.12-7.33-18.48-10.29a0,0,0,1,0,0,.08c5.81,3.34,11.67,6.59,17.48,9.95,5.53,3.2,10.32,7.29,15.58,10.83A65.85,65.85,0,0,1,92,387.05c-6.08-3.71-11-8.55-15.92-13.57a0,0,0,0,0-.07.06c.19.25.39.49.57.74-.35-.39-.7-.78-1.08-1.15-.1-.11-.28.06-.19.18,4.6,5.74,7.93,13.26,14.34,17.27,6,3.76,13.71,5.71,20.79,4.49l.4.27c.14.09.31-.11.17-.2l-.19-.14.32-.06.25.05c.09,0,.13-.06.1-.13q.7-.14,1.38-.33C113.17,394.45,113,394.05,112.75,394.12Zm-2.82.6a29.61,29.61,0,0,1-22-5.92c-4.17-3.33-6.52-8.2-9.65-12.42,7.83,9.1,20,15.63,31.5,18.26Z" style="fill: rgb(146, 227, 169); transform-origin: 94.1577px 384.263px;" id="elf9ndn74ndb5" class="animable"></path></g><g id="freepik--Door--inject-55" class="animable" style="transform-origin: 250px 246.999px;"><path d="M140.89,453.7,187.12,233a106.61,106.61,0,1,1,125.76,0L359.11,453.7Z" style="fill: rgb(146, 227, 169); transform-origin: 250px 246.999px;" id="eltxfyfzf0pmt" class="animable"></path><g id="elv0ql1p0tlzp"><g style="opacity: 0.3; transform-origin: 250px 246.999px;" class="animable"><path d="M140.89,453.7,187.12,233a106.61,106.61,0,1,1,125.76,0L359.11,453.7Z" id="ell5qtdyinv5r" class="animable" style="transform-origin: 250px 246.999px;"></path></g></g><path d="M155.41,453.7l44.08-226.21c-23-16.81-41.92-44-41.92-74.64a92.43,92.43,0,0,1,184.86,0c0,30.66-18.93,57.83-41.92,74.64L344.59,453.7Z" style="fill: rgb(146, 227, 169); transform-origin: 250px 257.076px;" id="elyeucef3s8ng" class="animable"></path><g id="el269kotbyl5m"><g style="opacity: 0.7; transform-origin: 250px 257.076px;" class="animable"><path d="M155.41,453.7l44.08-226.21c-23-16.81-41.92-44-41.92-74.64a92.43,92.43,0,0,1,184.86,0c0,30.66-18.93,57.83-41.92,74.64L344.59,453.7Z" style="fill: rgb(255, 255, 255); transform-origin: 250px 257.076px;" id="elqgqrpibqn18" class="animable"></path></g></g><g id="el8k5m5hontl4"><circle cx="250" cy="152.72" r="21.77" style="fill: rgb(146, 227, 169); opacity: 0.7; transform-origin: 250px 152.72px; transform: rotate(-20.29deg);" class="animable"></circle></g><g id="elkw5w2p5gs8"><polygon points="344.59 453.7 155.41 453.7 192.91 261.24 307.09 261.24 344.59 453.7" style="fill: rgb(146, 227, 169); opacity: 0.7; transform-origin: 250px 357.47px;" class="animable"></polygon></g><path d="M300.24,191.42a13.62,13.62,0,0,0-1.52-.65,6.71,6.71,0,0,0-1.66-.38,1.38,1.38,0,0,0-.51.06.56.56,0,0,0-.16.07l-.1.07-.18.15c-.22.2-.41.4-.6.61a16.14,16.14,0,0,0-1,1.31l.41-.15a12.09,12.09,0,0,0-1.69-.36,8.48,8.48,0,0,0-.88-.06,2.49,2.49,0,0,0-.47,0,1.38,1.38,0,0,0-.26.06l-.25.12a2.93,2.93,0,0,0-.67.64c-.18.23-.34.46-.5.7a11.36,11.36,0,0,0-.78,1.51c.36-.43.71-.87,1.08-1.28a8,8,0,0,1,.57-.59,3.08,3.08,0,0,1,.6-.47,1.63,1.63,0,0,1,.66-.06,5.55,5.55,0,0,1,.79.11,14.64,14.64,0,0,1,1.59.37l.27.07.15-.22c.3-.44.63-.87,1-1.28a5.84,5.84,0,0,1,.51-.59l.13-.12.06,0,0,0a1,1,0,0,1,.3-.06,7.87,7.87,0,0,1,1.56.16C299.16,191.21,299.7,191.32,300.24,191.42Z" style="fill: rgb(38, 50, 56); transform-origin: 294.83px 192.753px;" id="elbjr6bdvri8" class="animable"></path><path d="M294.26,207.57a18,18,0,0,0-2-1.4,9.44,9.44,0,0,0-2.32-1,2.08,2.08,0,0,0-.77-.06.88.88,0,0,0-.26.06l-.17.08-.3.16a12.46,12.46,0,0,0-1.07.72c-.67.51-1.28,1-1.9,1.62l.64-.09a16.71,16.71,0,0,0-2.38-1,8.59,8.59,0,0,0-1.28-.35,5,5,0,0,0-.7-.09,2.68,2.68,0,0,0-.39,0,2,2,0,0,0-.4.1,4.52,4.52,0,0,0-1.17.75,10,10,0,0,0-.94.89,16,16,0,0,0-1.6,2c.66-.54,1.3-1.08,2-1.57.33-.25.67-.5,1-.71a4.36,4.36,0,0,1,1-.51,2.41,2.41,0,0,1,1,.1,9.44,9.44,0,0,1,1.13.39c.75.3,1.51.65,2.24,1l.36.18.28-.27c.58-.56,1.19-1.09,1.79-1.61.31-.25.62-.5.93-.71a1.35,1.35,0,0,1,.22-.14l.11-.06,0,0a1.28,1.28,0,0,1,.44,0,12.77,12.77,0,0,1,2.25.68C292.74,207,293.5,207.26,294.26,207.57Z" style="fill: rgb(38, 50, 56); transform-origin: 285.755px 207.529px;" id="elakml31imqo9" class="animable"></path><path d="M197.75,170.21a11.86,11.86,0,0,0-1.4-.89,6.48,6.48,0,0,0-1.57-.65,1.43,1.43,0,0,0-.52,0l-.16.05-.12.06-.2.11c-.25.16-.47.33-.69.5-.44.36-.83.73-1.24,1.12l.43-.07a11.2,11.2,0,0,0-1.61-.63,7.71,7.71,0,0,0-.86-.21,3.43,3.43,0,0,0-.47,0,1.18,1.18,0,0,0-.26,0,1.38,1.38,0,0,0-.27.08,3.08,3.08,0,0,0-.76.52,7,7,0,0,0-.61.61,11.32,11.32,0,0,0-1,1.37c.43-.37.84-.75,1.28-1.09a7.64,7.64,0,0,1,.66-.5,3.33,3.33,0,0,1,.66-.36,1.62,1.62,0,0,1,.67,0,5.94,5.94,0,0,1,.76.23c.51.18,1,.4,1.51.63l.25.11.18-.19c.37-.38.77-.75,1.16-1.1a6.62,6.62,0,0,1,.6-.5.65.65,0,0,1,.15-.1l.07,0s0,0,0,0a.71.71,0,0,1,.3,0,8.35,8.35,0,0,1,1.52.4C196.72,169.82,197.23,170,197.75,170.21Z" style="fill: rgb(38, 50, 56); transform-origin: 192.095px 170.413px;" id="elbc7cjh6f73g" class="animable"></path><path d="M211.29,168a19.4,19.4,0,0,0-1.54-2,9.74,9.74,0,0,0-1.91-1.68,2.08,2.08,0,0,0-.72-.3h-.26l-.18,0-.34.07a11.72,11.72,0,0,0-1.23.37c-.79.28-1.54.62-2.3,1l.64.11a17.63,17.63,0,0,0-2-1.68,8.9,8.9,0,0,0-1.12-.71,4.75,4.75,0,0,0-.64-.3,3.54,3.54,0,0,0-.38-.09,2.83,2.83,0,0,0-.41,0,4.46,4.46,0,0,0-1.34.37,12.5,12.5,0,0,0-1.16.57,15.43,15.43,0,0,0-2.12,1.43c.79-.32,1.56-.64,2.35-.92.39-.14.78-.27,1.17-.37a4.38,4.38,0,0,1,1.12-.19,2.37,2.37,0,0,1,.91.39,8.87,8.87,0,0,1,1,.71c.63.5,1.25,1.06,1.83,1.62l.3.28.35-.17c.71-.36,1.45-.69,2.18-1a10.6,10.6,0,0,1,1.1-.41l.25-.07.12,0h0a1.34,1.34,0,0,1,.43.13,12.88,12.88,0,0,1,1.95,1.32C210,167,210.64,167.5,211.29,168Z" style="fill: rgb(38, 50, 56); transform-origin: 202.785px 165.391px;" id="elqxmhutvq3tp" class="animable"></path><path d="M313.58,203.61a18,18,0,0,0-1.53-2,9.74,9.74,0,0,0-1.91-1.68,2.08,2.08,0,0,0-.72-.3h-.26l-.19,0-.34.07a10.87,10.87,0,0,0-1.22.37c-.8.28-1.54.62-2.3,1l.64.11a19.64,19.64,0,0,0-2-1.68,10.63,10.63,0,0,0-1.12-.71,5.4,5.4,0,0,0-.64-.3,3.54,3.54,0,0,0-.38-.09,2.86,2.86,0,0,0-.42,0,4.64,4.64,0,0,0-1.34.37c-.4.17-.78.37-1.16.57a16,16,0,0,0-2.11,1.43c.79-.32,1.56-.64,2.35-.92.39-.14.78-.27,1.17-.37a4.31,4.31,0,0,1,1.11-.19,2.41,2.41,0,0,1,.92.39,7.91,7.91,0,0,1,1,.71c.64.5,1.25,1.06,1.84,1.62l.29.28.35-.17c.72-.36,1.46-.69,2.19-1a9.67,9.67,0,0,1,1.09-.41c.09,0,.18-.06.26-.07l.12,0h0a1.34,1.34,0,0,1,.43.13,12.81,12.81,0,0,1,1.94,1.32C312.32,202.56,312.94,203.09,313.58,203.61Z" style="fill: rgb(38, 50, 56); transform-origin: 305.08px 201.001px;" id="elq34aszlyud" class="animable"></path><path d="M303.35,261.24S291,239.05,288.5,237.06c-1.92-1.52-7.31-14.18-11.21-23-.48-1.07-2.27-.2-2.71-1.19-1.46-3.35-2.64-6.14-3.25-7.57-1.25-2.93-8.43-1.58-9.6,0-.61.81-4.87,12.75-7.58,18.41-.88,1.82-6.6,3-9,3.91s-8.37,18.08-10.13,19.32c-9.75,6.9-12.17,13.06-14.1,14.31h82.38Z" style="fill: rgb(146, 227, 169); transform-origin: 262.135px 232.411px;" id="ela9r0jb8c695" class="animable"></path><g id="el6a4c3jv0rzn"><path d="M303.35,261.24S291,239.05,288.5,237.06c-1.92-1.52-7.31-14.18-11.21-23-.48-1.07-2.27-.2-2.71-1.19-1.46-3.35-2.64-6.14-3.25-7.57-1.25-2.93-8.43-1.58-9.6,0-.61.81-4.87,12.75-7.58,18.41-.88,1.82-6.6,3-9,3.91s-8.37,18.08-10.13,19.32c-9.75,6.9-12.17,13.06-14.1,14.31h82.38Z" style="opacity: 0.1; transform-origin: 262.135px 232.411px;" class="animable"></path></g><g id="el7m4zs4yfjlo"><polygon points="303.35 261.23 303.35 261.24 303.35 261.23 303.35 261.23" style="opacity: 0.4; transform-origin: 303.35px 261.235px;" class="animable"></polygon></g><g id="el23s5dzlzzk1"><polygon points="303.35 261.23 303.35 261.24 303.35 261.23 303.35 261.23" style="opacity: 0.2; transform-origin: 303.35px 261.235px;" class="animable"></polygon></g><g id="elllnuggi851"><path d="M303.35,261.23H254.27c3-2.94,9.28-9.31,9.84-10.68.72-1.79,1.66-14.75,1.93-16.47s5.3-12,5.5-13.84-.62-15.32-.63-15.6h0a0,0,0,0,0,0,0l.05.06.06.07.06.08.05.07a.41.41,0,0,1,.05.09l0,0,0,.09,0,.05a.36.36,0,0,0,0,.09l.09.21.09.23.11.24c0,.09.07.17.11.26.66,1.55,1.67,3.91,2.85,6.63l.06.1a.16.16,0,0,0,.05.08l.08.09.07,0s.16,6.49.12,7.07-1.48,4.7-1.57,5.59.13,4.35,0,5.08c-.08.43-1.53,4.94-1.91,6.05-.1.3,1,.1,1.08.1s1.5-4,1.76-4.3.47-5.68.65-6.09,2-4.87,2.18-5.36.15-7.27.15-7.27c.73,1.66,1.51,3.45,2.32,5.28l.6,1.37.21.46c.18.42.37.85.56,1.27l.76,1.71.38.84.38.84c.12.28.25.55.37.82.5,1.1,1,2.15,1.46,3.14.12.25.23.49.35.73.89,1.85,1.71,3.46,2.41,4.63l.32.54.22.33.12.18a5.23,5.23,0,0,0,.35.47s-4.33,4.8-5,6.17-2.19,10-2.69,11-3.83,5-3.69,5.29,6.28-1.61,7-3.48,2.18-8.94,2.87-9.9c.52-.74,3-3.94,4.37-5.46C296.76,249.15,303.1,260.91,303.35,261.23Z" style="opacity: 0.1; transform-origin: 278.81px 232.935px;" class="animable"></path></g><g id="eluk0pla5s9m"><path d="M256.55,239.48c-.19.21-3.7-1.21-3.91-1.31s-1.36-4.42-1.58-4.34a10.29,10.29,0,0,1-3.52-1.75,37.17,37.17,0,0,1-1.41-4.73h0l1-.39c2.17-.66,5-1.46,6.36-2.5.07.9.42,5.3.35,6s-.64,2.55-.47,3.12S256.74,239.26,256.55,239.48Z" style="opacity: 0.1; transform-origin: 251.344px 231.981px;" class="animable"></path></g><path d="M277.6,261.24s-22.19-8-25-9c-1.2-.45-8.64-12.78-9.32-13.5-1.05-1.12-4.54-2.3-6.4-4.36-.43-.49-3.22-4-3.45-4.19-.71-.69-3.45-.54-4.85-.54s-13.21,18-14.42,19.51-7.8,7-9.84,7.53-7.66,4.59-7.66,4.59Z" style="fill: rgb(146, 227, 169); transform-origin: 237.13px 245.458px;" id="el6de774lukjq" class="animable"></path><g id="ela1uwvnnn39d"><path d="M230.34,249.67c-.28-.25-.37-3.2-.45-3.73s-4.07-5.2-4.11-5.86,2.79-10.47,2.79-10.47c-1.52,0-13.21,18-14.42,19.51l-.29.33-.19.19c-.23.24-.52.51-.85.82l-.29.26-.46.42-.33.28-.52.45-.37.3c-.36.31-.74.61-1.12.92a40.5,40.5,0,0,1-4,2.88l-.3.18-.28.15-.39.19-.23.09-.2.06-.42.15-.24.1-.26.11-.26.13-.29.14-.59.33-.62.36-.48.28-.16.1-.32.2-.16.1-.32.2c-1.86,1.19-3.54,2.4-3.54,2.4h48.63C240.39,257.51,230.55,249.85,230.34,249.67Zm-11.12-.89c-.16-.05-1.22-1.64-1.37-1.69a3,3,0,0,1-.38-1.36,4,4,0,0,1,.65-.33c.07,0,.5.76.58.76a8.3,8.3,0,0,1,1.69.12,12.57,12.57,0,0,1,1.22,2.5C221.55,249,219.38,248.84,219.22,248.78Z" style="opacity: 0.1; transform-origin: 220.985px 245.425px;" class="animable"></path></g></g><g id="freepik--Floor--inject-55" class="animable" style="transform-origin: 245.03px 453.7px;"><path d="M35,453.7c134.56-.61,285.51-.62,420.06,0-134.56.62-285.5.61-420.06,0Z" style="fill: rgb(38, 50, 56); transform-origin: 245.03px 453.7px;" id="el5jtbc1ojryr" class="animable"></path></g><g id="freepik--Character--inject-55" class="animable" style="transform-origin: 178.047px 269.976px;"><path d="M152.2,454.7c-2.74-.42-69.55-34.69-71.28-37.61C80.27,416,84.69,406,90.38,394c1.23-2.59,30.2-40.23,30.2-40.23l38.83,20.79L133.52,416s19.71,24.57,21.26,28S154.93,455.12,152.2,454.7Z" style="fill: rgb(235, 148, 129); transform-origin: 120.133px 404.243px;" id="eli1xo057qoli" class="animable"></path><path d="M152.2,454.7c-2.73-.42-69.55-34.69-71.27-37.61-.5-.84,1.91-6.79,5.59-14.85,7.68,6.35,54.46,34.85,60.41,37,5.75,2.07-3.57-10.69-5.26-13,5.62,7.16,12.24,15.77,13.12,17.69C156.31,447.34,154.94,455.12,152.2,454.7Z" style="fill: rgb(38, 50, 56); transform-origin: 118.143px 428.478px;" id="elqwr5h2yqgxr" class="animable"></path><path d="M94.19,386.9l43.27,27.8S197,334.19,201.78,312c3.58-16.86-20.36-106.48-20.36-106.48l-.62-23.7H143.25s-17,30.84-10.62,46.7c6.5,16.3,13.89,75.31,13.89,80.58C146.52,313.88,94.19,386.9,94.19,386.9Z" style="fill: rgb(38, 50, 56); transform-origin: 148.167px 298.26px;" id="elua715fq9fd" class="animable"></path><path d="M103.94,379.77a33.69,33.69,0,0,1,3.65,1.84c1.35.69,2.7,1.38,4,2.12,2.55,1.41,5.07,2.89,7.56,4.4,5,3.06,10,6.17,14.92,9.41,2.79,1.84,5.57,3.7,8.31,5.62a.11.11,0,0,1-.12.19c-5.08-2.86-10.1-5.83-15.14-8.78s-10.06-5.89-15-9c-1.41-.9-2.82-1.79-4.19-2.74s-2.88-1.77-4.14-2.84C103.77,379.89,103.83,379.72,103.94,379.77Z" style="fill: rgb(55, 71, 79); transform-origin: 123.109px 391.564px;" id="ella92g9blaq" class="animable"></path><path d="M270.54,456.39c-2.63.86-77.72.2-80.57-1.64-1.08-.69-1.62-11.63-1.9-24.87-.06-2.86.24-46.9.24-46.9l50.2.29-2,46.9s28.64,13.11,31.55,15.46S273.18,455.54,270.54,456.39Z" style="fill: rgb(235, 148, 129); transform-origin: 229.891px 419.872px;" id="el57rtjv50fix" class="animable"></path><path d="M270.54,456.39c-2.62.86-77.71.19-80.56-1.64-.83-.52-1.34-6.93-1.67-15.78,9.71,2.23,64.31,6.72,70.59,6,6.06-.73-8-7.95-10.53-9.23,8.24,3.88,18,8.6,19.66,9.92C270.92,448,273.18,455.54,270.54,456.39Z" style="fill: rgb(38, 50, 56); transform-origin: 230.01px 446.251px;" id="eludesy6tbmqb" class="animable"></path><path d="M163.75,233.76s24.42,67.84,25.49,72.91c1.64,7.83-3.86,118.36-3.86,118.36l56.41.33s3.32-105.43-.12-126.26c-3.06-18.5-37.63-93.1-39.41-97.32-2.16-5.09-3.55-13.25-4.45-20H144.52s-2.54,27.47,9.95,47.33C154.47,229.1,160.13,231.72,163.75,233.76Z" style="fill: rgb(38, 50, 56); transform-origin: 193.769px 303.57px;" id="el64gfm82u9xp" class="animable"></path><path d="M177.7,235.11a50,50,0,0,1-8.37-.76,80.59,80.59,0,0,1-8.12-2.25,64.72,64.72,0,0,0-8-1.3,28,28,0,0,1-7.8-2.32.1.1,0,0,0-.1.17,48.61,48.61,0,0,0,7.48,3.25c2.67.84,5.47.95,8.19,1.62a68.22,68.22,0,0,0,8.35,1.92,30.4,30.4,0,0,0,8.36-.14C177.84,235.28,177.81,235.12,177.7,235.11Z" style="fill: rgb(55, 71, 79); transform-origin: 161.533px 232.068px;" id="el0rlfqc6xfutd" class="animable"></path><path d="M163.75,233.76c8.74,23.43,17.22,47,25.25,70.69a19.22,19.22,0,0,1,1.12,6.82c.13,4.57-.06,9.12-.24,13.67s-.48,9.09-.84,13.63c.13-8.09.54-19.32.22-27.27a18.16,18.16,0,0,0-1.13-6.56c-8.12-23.52-16.56-47.39-24.38-71Z" style="fill: rgb(55, 71, 79); transform-origin: 176.956px 286.155px;" id="elb4p4dyn1z7p" class="animable"></path><path d="M192.67,411.85c1.33-.14,2.74-.1,4.08-.14,1.52,0,3-.09,4.54-.1,2.92,0,5.83,0,8.75.05,5.87.1,11.75.25,17.63.5,3.34.14,6.68.29,10,.49.14,0,.13.15,0,.15-5.83,0-11.67,0-17.5-.07s-11.66-.09-17.47-.28c-1.68-.06-3.35-.1-5-.2s-3.38-.07-5-.27C192.59,412,192.56,411.86,192.67,411.85Z" style="fill: rgb(55, 71, 79); transform-origin: 215.186px 412.205px;" id="elv6jrkwclazr" class="animable"></path><path d="M180.6,141.34c-15.41,22-32.41,36-42.89,30.07-7-3.95,3.58-20.31,3.9-20.67,1.13-1.23,15.61-12.14,29.85-20.31C187.12,121.45,187.48,131.5,180.6,141.34Z" style="fill: rgb(69, 90, 100); transform-origin: 160.094px 149.857px;" id="elall2jla0kg6" class="animable"></path><path d="M135.69,168.6c-2.95-5.89.65-27.52,7.58-45.89,1.22-3.22,26.46,4.47,24.91,8-5.11,11.7-12,33-19.59,38.14C142.67,172.87,137.73,172.67,135.69,168.6Z" style="fill: rgb(235, 148, 129); transform-origin: 151.451px 146.85px;" id="elylxw3qh0cgq" class="animable"></path><path d="M167.56,113.68c.32,1.65,1.19,1.49,2.55-1.17s4.49-14.38,8.48-12.94-.65,17.89-3.26,22.15S167,132,167,132C167.28,128.59,167.13,120.33,167.56,113.68Z" style="fill: rgb(235, 148, 129); transform-origin: 173.573px 115.724px;" id="elrrlg8c31jlf" class="animable"></path><path d="M142.46,127.33c.2-10.33,1.86-21.4,8.36-30a5.36,5.36,0,0,1,2.85-2c2.84-3.91,5.55-3.74,5.55-3.74,3.76-2.84,6.5-2.29,6.5-2.29s2.67-2.86,4.8-1.14S170,95.8,169,101c-2.19,11.82-1.69,27.55-2,31Z" style="fill: rgb(235, 148, 129); transform-origin: 156.893px 109.805px;" id="elg82mltoi8il" class="animable"></path><path d="M158.29,110.05a79.63,79.63,0,0,1,2.5-10.24,78.45,78.45,0,0,1,5-10.43.09.09,0,0,0-.16-.1A40.78,40.78,0,0,0,158.14,110C158.12,110.19,158.26,110.22,158.29,110.05Z" style="fill: rgb(38, 50, 56); transform-origin: 161.971px 99.6987px;" id="elsgkqjrihvw" class="animable"></path><path d="M151,109.77c.88-3.34,2.46-9.19,8.34-18.17a0,0,0,0,0-.05,0,36.69,36.69,0,0,0-8.45,18.17C150.77,109.94,150.91,110,151,109.77Z" style="fill: rgb(38, 50, 56); transform-origin: 155.081px 100.76px;" id="elka7ytf5vf6" class="animable"></path><path d="M147,109.54c1.71-5.61,3.51-8.93,6.65-14.22,0,0,0-.07-.05,0-4.21,5.64-5.09,8.16-6.8,14.23C146.77,109.72,147,109.76,147,109.54Z" style="fill: rgb(38, 50, 56); transform-origin: 150.224px 102.49px;" id="el1nggz39v0c1" class="animable"></path><path d="M168.18,136.9,139,128s-8.88,32.53-3.39,41.19c3,4.7,10,6,18.66-3.57C156.54,163.07,168.18,136.9,168.18,136.9Z" style="fill: rgb(69, 90, 100); transform-origin: 150.999px 150.395px;" id="elv7diq3jb8yi" class="animable"></path><path d="M162,141.83c-1.41-.49-2.87-.86-4.3-1.27s-2.89-.8-4.33-1.18q-4.35-1.12-8.71-2.18l-2.39-.56c-.85-.19-1.73-.27-2.58-.47a.06.06,0,0,0,0,.11c.71.2,1.39.49,2.09.7s1.47.43,2.2.63l4.34,1.15c2.89.75,5.79,1.49,8.71,2.15,1.65.37,3.3.8,5,1.07A.08.08,0,0,0,162,141.83Z" style="fill: rgb(38, 50, 56); transform-origin: 150.863px 139.075px;" id="elga7clmf43lr" class="animable"></path><path d="M166.35,136.69c.66,0,1.33.06,2,.11l-.05.15q-3.12,8.58-7,16.86c-2,4.08-3.87,8.41-6.91,11.87a41.12,41.12,0,0,1-3.39,3.08c1-1.11,2.09-2.21,3-3.39,2.74-3.6,4.35-7.94,6.36-12l3.82-8.27,3.87-8.26.09.16c-.61-.1-1.21-.22-1.82-.33Z" style="fill: rgb(38, 50, 56); transform-origin: 159.675px 152.715px;" id="el91gl4def2s" class="animable"></path><path d="M185.52,137.4c-3.49-.05-6-6.12-6.69-10.33-.05-.32,1.09-3.17,2.34-6.69.76-2.15,1.54-4.55,2.1-6.8l13.24,6.94a36.75,36.75,0,0,0-3.52,8.29,4.61,4.61,0,0,0-.13.94c0,.05,0,.1,0,.16C192.69,131.73,188.9,137.44,185.52,137.4Z" style="fill: rgb(235, 148, 129); transform-origin: 187.669px 125.49px;" id="el5ndtwwn4qqr" class="animable"></path><path d="M192.86,129.76l0,.15a7.84,7.84,0,0,1-1.46-.29c-7.61-2.08-7.67-11.92-7.39-15.66l12.51,6.57a36.45,36.45,0,0,0-3.5,8.28A4.55,4.55,0,0,0,192.86,129.76Z" style="fill: rgb(38, 50, 56); transform-origin: 190.226px 121.935px;" id="elpg0wyapc59e" class="animable"></path><path d="M180.14,94.21c-2.36,6-1.1,21.46,2.93,25.74,5.84,6.22,16.11,7.6,21.57.42,5.29-7,3.44-26.54-1.13-30.5C196.79,84,183.62,85.41,180.14,94.21Z" style="fill: rgb(235, 148, 129); transform-origin: 193.405px 105.767px;" id="elzm5pue3wcvj" class="animable"></path><path d="M206.48,99.09s0,3.71-2.55,4.6c-.2.07-9.77,17.11-22.57,14.38,0,0-8.59-12-5.05-21.85,2.29-6.33,6.93-7.71,6.93-7.71s10-7.26,20.19-2.13S210.49,99,206.48,99.09Z" style="fill: rgb(38, 50, 56); transform-origin: 192.867px 101.456px;" id="elitiyx4dhiw" class="animable"></path><path d="M197.81,181.77l1.64-9.9s5.44-5.34,4.85-10.42-6.88-22.51-12-30-13.94-4.26-18.26-.37c-9.13,8.23-16.51,18.63-30.82,50.67Z" style="fill: rgb(69, 90, 100); transform-origin: 173.782px 154.351px;" id="elzwk7a2577jq" class="animable"></path><path d="M172,131.59c-18.13,16.35-41.68,75.71-46.27,102.17s-5.92,42.08.58,49.66,32.12,13.5,45.41,13.5c15.94,0,43.46-7.09,45.34-20.87,0,0-16.76-88-16.76-91.84a122.45,122.45,0,0,0-.86-12.34s6.53-4.26,6.35-9.33-7.58-23.14-11.08-29.63C191.68,127.29,183.68,121.06,172,131.59Z" style="fill: rgb(69, 90, 100); transform-origin: 169.458px 211.403px;" id="el9gtgtust65j" class="animable"></path><path d="M146.73,172.3c5.39-14.55,13-28.83,24.21-39.7-10.21,11.77-17.58,25.68-24.21,39.7Z" style="fill: rgb(38, 50, 56); transform-origin: 158.835px 152.45px;" id="elvxz8mpxv8i" class="animable"></path><path d="M169.07,133.62a37.9,37.9,0,0,1-2.36,3.52,5.23,5.23,0,0,1,2.36-3.52Z" style="fill: rgb(38, 50, 56); transform-origin: 167.89px 135.38px;" id="eloj8ogwko57b" class="animable"></path><path d="M198.25,138.78c3.69,8.15,18.12,37.41,19.18,38.76s23.09,27.34,27,31c2.74,2.58-20.74,18.05-23,15.67-5.29-5.58-19.42-22.33-24.29-30.8-4-6.92-10.93-45.3-10.94-55S192.18,125.4,198.25,138.78Z" style="fill: rgb(235, 148, 129); transform-origin: 215.426px 177.182px;" id="elhr6oyf61i5c" class="animable"></path><path d="M236.13,202.47s10.85.91,16.41,3.15a38.44,38.44,0,0,1,14.65,11.15c4.24,5.22,10.88,20.76,6.74,23.45-3.75,2.44-9.74-13.79-9.74-13.79S273,242,268,244.08,257,227,257,227s8.71,16.17,3.16,17.52c-4.2,1-10.51-16.11-10.51-16.11s7.4,13.95,3.13,15.19c-4.73,1.36-11.54-14.09-11.54-14.09-11.39,1.31-17.9-2.14-21.28-6.91C219.28,221.53,236.13,202.47,236.13,202.47Z" style="fill: rgb(235, 148, 129); transform-origin: 247.589px 223.516px;" id="elxf165ks2vp9" class="animable"></path><path d="M261.48,220.86c1.1,1.79,2.23,3.59,3.17,5.47s1.82,3.79,2.58,5.75a35.76,35.76,0,0,1,2.24,7.91c-1.14-4.76-4.4-11.54-5.34-13.42s-1.78-3.8-2.72-5.68C261.38,220.84,261.45,220.82,261.48,220.86Z" style="fill: rgb(38, 50, 56); transform-origin: 265.436px 230.414px;" id="elvgcnulzc84" class="animable"></path><path d="M254.63,224.13c1.31,2.35,2.7,4.63,3.9,7s2.14,4.76,3.17,7.23c.08.19-.05.17-.14,0-1.13-2.43-2.36-4.58-3.52-7s-2.23-4.87-3.47-7.23C254.55,224.12,254.61,224.1,254.63,224.13Z" style="fill: rgb(38, 50, 56); transform-origin: 258.145px 231.305px;" id="elh73u0sis15d" class="animable"></path><path d="M248.24,225.89a59.46,59.46,0,0,1,5.15,11.2c.07.19-.09.14-.17-.05-1.65-3.75-2.91-6.71-5.1-11.08C248.09,225.89,248.2,225.81,248.24,225.89Z" style="fill: rgb(38, 50, 56); transform-origin: 250.761px 231.533px;" id="elsa2sfrk5pxi" class="animable"></path><path d="M215.41,222.55l25.37-21.78s-22.69-22.63-23.44-24.69S200.77,142.32,197,135.51s-11.55-10.13-11.17,6.34,7.42,42,9.12,48.94C196.33,196.38,215.41,222.55,215.41,222.55Z" style="fill: rgb(69, 90, 100); transform-origin: 213.298px 176.231px;" id="elvbdr96vpsih" class="animable"></path><path d="M213.53,214.29c.74-.85,8.28-7.38,9.95-8.77s8.44-7.11,10.28-8.39c.08-.06.18,0,.11.11-1.56,1.61-8.37,7.4-10.05,8.85s-9.27,7.74-10.2,8.32C213.54,214.46,213.48,214.34,213.53,214.29Z" style="fill: rgb(38, 50, 56); transform-origin: 223.703px 205.764px;" id="el614kd8hojt4" class="animable"></path><path d="M218.15,220.62l-2.69,2-.07.05c-4.07-5.27-8-10.66-11.74-16.13a140.3,140.3,0,0,1-7.85-12.7c-2.33-4.44-2.92-9.57-4.14-14.37-.72-3.24-1.41-6.47-2-9.72-1.24-6.5-2.55-13-3.16-19.6,1,6.54,2.5,13,3.89,19.44s2.83,12.93,4.55,19.29c1.87,6.24,6,11.68,9.44,17.19s7.79,11.29,11,16.39l2.8-1.85Z" style="fill: rgb(38, 50, 56); transform-origin: 202.34px 186.41px;" id="elzim16up3f3e" class="animable"></path><path d="M185.83,153.46a24.37,24.37,0,0,1,1.92,4.92,9.65,9.65,0,0,1-1.92-4.92Z" style="fill: rgb(38, 50, 56); transform-origin: 186.79px 155.92px;" id="eljb85wnjzwdg" class="animable"></path><path d="M179.71,87.68s9.19-7.78,18.77-2.86,9.34,27.07,9.94,33.62,5.84,8.92-1.16,13.85-16,5.63-25,4.2-15.17-6.14-16-10.29c-.51-2.54,1.73-4.64,2.6-8.65C169.4,115.19,167.4,87.5,179.71,87.68Z" style="fill: rgb(38, 50, 56); transform-origin: 188.526px 110.167px;" id="elcml6pwaras8" class="animable"></path><path d="M166.46,121.23c.45-2.73,1.5-5.24,1.81-8s.26-5.47.36-8.2c.25-7,2.25-17.61,11.26-17.1a.14.14,0,0,1,0,.28c-10.17.18-10.65,12.33-10.87,19.91a40.25,40.25,0,0,1-1.33,10.19c-1.34,4.7-1.29,8.95,2.12,12.81a.09.09,0,0,1-.13.12A11.7,11.7,0,0,1,166.46,121.23Z" style="fill: rgb(38, 50, 56); transform-origin: 173.175px 109.585px;" id="el77a76gtl35" class="animable"></path><path d="M181.49,87.63c5-3.23,10.82-5.78,16.76-3.24,5.13,2.2,8,7.43,9.21,12.59,1.64,7.19.42,14.72,2.33,21.87.67,2.52,2.66,5.31,2.22,8-.38,2.42-2.38,3-4.57,3.32-.12,0-.16-.15,0-.17,5.33-.92,4.18-4.63,2.83-8.22a32,32,0,0,1-1.81-7.77c-.6-5.31-.25-10.7-1.25-16-1-5.12-3.34-10.36-8.22-13-6.11-3.25-12-.54-17.41,2.62C181.48,87.76,181.43,87.67,181.49,87.63Z" style="fill: rgb(38, 50, 56); transform-origin: 196.768px 106.763px;" id="ellti0rzleq5o" class="animable"></path></g><g id="freepik--speech-bubble--inject-55" class="animable" style="transform-origin: 242.82px 60.4185px;"><path d="M272,60.42A27.6,27.6,0,0,1,228,82.58L214.44,86l5.63-12.59a27.61,27.61,0,1,1,51.95-13Z" style="fill: rgb(255, 255, 255); transform-origin: 243.23px 60.3736px;" id="elxpzmkupbybp" class="animable"></path><path d="M272,60.42c-.15,23.3-26.68,35.61-44,22.51l-13.5,3.53-.88.23.37-.83,5.59-12.62v.43C213.3,62.38,216.38,47.13,226.4,39c18.14-15,45.55-2.11,45.62,21.4Zm0,0c.09-17.65-17.18-31.14-34.25-26.49-17,4.25-25.69,24.15-17.17,39.49l-.09.22-5.67,12.57-.51-.6,13.54-3.37c18.45,13.35,43.72,1.19,44.15-21.82Z" style="fill: rgb(38, 50, 56); transform-origin: 242.82px 60.4185px;" id="el1mxvgdra5rk" class="animable"></path><path d="M245.65,63.42v3a2.24,2.24,0,0,1-2.3,2.3,2.3,2.3,0,0,1-2.3-2.3V61.59c0-.05,0-.05,0-.09s0,0,0-.1a2.37,2.37,0,0,1,2.3-2.3,5.26,5.26,0,1,0,0-10.51,5.18,5.18,0,0,0-4.5,2.58,2.33,2.33,0,0,1-3.2.85,2.3,2.3,0,0,1-.79-3.15,9.86,9.86,0,1,1,10.79,14.55Zm0,10.28v.84a2.25,2.25,0,0,1-2.3,2.31,2.31,2.31,0,0,1-2.3-2.31V73.7a2.33,2.33,0,0,1,2.3-2.3A2.27,2.27,0,0,1,245.65,73.7Z" style="fill: rgb(146, 227, 169); transform-origin: 243.89px 60.4071px;" id="elv1u37sq68e8" class="animable"></path></g><defs>     <filter id="active" height="200%">         <feMorphology in="SourceAlpha" result="DILATED" operator="dilate" radius="2"></feMorphology>                <feFlood flood-color="#32DFEC" flood-opacity="1" result="PINK"></feFlood>        <feComposite in="PINK" in2="DILATED" operator="in" result="OUTLINE"></feComposite>        <feMerge>            <feMergeNode in="OUTLINE"></feMergeNode>            <feMergeNode in="SourceGraphic"></feMergeNode>        </feMerge>    </filter>    <filter id="hover" height="200%">        <feMorphology in="SourceAlpha" result="DILATED" operator="dilate" radius="2"></feMorphology>                <feFlood flood-color="#ff0000" flood-opacity="0.5" result="PINK"></feFlood>        <feComposite in="PINK" in2="DILATED" operator="in" result="OUTLINE"></feComposite>        <feMerge>            <feMergeNode in="OUTLINE"></feMergeNode>            <feMergeNode in="SourceGraphic"></feMergeNode>        </feMerge>            <feColorMatrix type="matrix" values="0   0   0   0   0                0   1   0   0   0                0   0   0   0   0                0   0   0   1   0 "></feColorMatrix>    </filter></defs></svg>